%TF.GenerationSoftware,KiCad,Pcbnew,10.0.5-1.fc44*%
%TF.CreationDate,2026-09-18T15:24:59+02:00*%
%TF.ProjectId,densor_nfc_v2,64656e73-6f72-45f6-9e66-635f76322e6b,rev?*%
%TF.SameCoordinates,Original*%
%TF.FileFunction,Copper,L2,Bot*%
%TF.FilePolarity,Positive*%
%FSLAX46Y46*%
G04 Gerber Fmt 4.6, Leading zero omitted, Abs format (unit mm)*
G04 Created by KiCad (PCBNEW 10.0.5-1.fc44) date 2026-09-18 15:24:59*
%MOMM*%
%LPD*%
G01*
G04 APERTURE LIST*
%TA.AperFunction,ComponentPad*%
%ADD10R,1.000000X1.000000*%
%TD*%
%TA.AperFunction,ComponentPad*%
%ADD11O,1.000000X1.000000*%
%TD*%
%TA.AperFunction,ComponentPad*%
%ADD12R,1.700000X1.700000*%
%TD*%
%TA.AperFunction,ComponentPad*%
%ADD13O,1.700000X1.700000*%
%TD*%
%TA.AperFunction,ViaPad*%
%ADD14C,0.500000*%
%TD*%
%TA.AperFunction,Conductor*%
%ADD15C,0.150000*%
%TD*%
%TA.AperFunction,Conductor*%
%ADD16C,0.300000*%
%TD*%
%TA.AperFunction,Conductor*%
%ADD17C,0.200000*%
%TD*%
G04 APERTURE END LIST*
D10*
%TO.P,J1,1,VTref*%
%TO.N,/V_MCU*%
X162000000Y-84875000D03*
D11*
%TO.P,J1,2,SWDIO/TMS*%
%TO.N,/swdio*%
X162000000Y-86145000D03*
%TO.P,J1,3,GND*%
%TO.N,GND*%
X160730000Y-84875000D03*
%TO.P,J1,4,SWDCLK/TCK*%
%TO.N,/swclk*%
X160730000Y-86145000D03*
%TO.P,J1,5,GND*%
%TO.N,GND*%
X159460000Y-84875000D03*
%TO.P,J1,6,SWO/TDO*%
%TO.N,unconnected-(J1-SWO{slash}TDO-Pad6)*%
X159460000Y-86145000D03*
%TO.P,J1,7,KEY*%
%TO.N,unconnected-(J1-KEY-Pad7)*%
X158190000Y-84875000D03*
%TO.P,J1,8,NC/TDI*%
%TO.N,unconnected-(J1-NC{slash}TDI-Pad8)*%
X158190000Y-86145000D03*
%TO.P,J1,9,GNDDetect*%
%TO.N,unconnected-(J1-GNDDetect-Pad9)*%
X156920000Y-84875000D03*
%TO.P,J1,10,~{RESET}*%
%TO.N,/nRST_MCU*%
X156920000Y-86145000D03*
%TD*%
D12*
%TO.P,J3,1,Pin_1*%
%TO.N,/V_MCU*%
X144260000Y-85650000D03*
D13*
%TO.P,J3,2,Pin_2*%
%TO.N,/i2c_scl*%
X146800000Y-85650000D03*
%TO.P,J3,3,Pin_3*%
%TO.N,/i2c_sda*%
X149340000Y-85650000D03*
%TO.P,J3,4,Pin_4*%
%TO.N,GND*%
X151880000Y-85650000D03*
%TD*%
D14*
%TO.N,/NFC_SWITCH*%
X140032079Y-92247216D03*
X141978189Y-91290411D03*
X149100000Y-90750000D03*
X145484300Y-90284300D03*
%TO.N,/V_MCU*%
X149550000Y-93600000D03*
X140954088Y-93196716D03*
X137900000Y-93575500D03*
X166500000Y-95500000D03*
X163350000Y-96250000D03*
X150600000Y-91800000D03*
%TO.N,/pd*%
X157514477Y-91900500D03*
X157800000Y-93300000D03*
%TO.N,/i2c_scl*%
X159450000Y-94800000D03*
X150600000Y-95250000D03*
X143850000Y-90900000D03*
X163538909Y-97038909D03*
X161700000Y-96900000D03*
X138870000Y-93345500D03*
%TO.N,/PSW*%
X154544500Y-86520000D03*
X155040000Y-88529500D03*
X162450000Y-93900000D03*
X150750000Y-93600000D03*
X165750000Y-94800000D03*
X157950000Y-91350000D03*
%TO.N,/i2c_sda*%
X150750000Y-94249503D03*
X145950000Y-92250000D03*
X161700000Y-95700000D03*
X140375522Y-91663432D03*
X162450000Y-92100000D03*
X164075000Y-92201611D03*
%TO.N,/swdio*%
X161360000Y-88460000D03*
X155569500Y-84860000D03*
%TO.N,/swclk*%
X157660000Y-88390000D03*
X155160000Y-87290000D03*
%TO.N,GND*%
X163972863Y-97541280D03*
X158400000Y-96000000D03*
X182000000Y-94000000D03*
X151200000Y-96900000D03*
X140777979Y-90723091D03*
X140700000Y-97480000D03*
X150300000Y-90600000D03*
X162390825Y-96269778D03*
X147600000Y-96150000D03*
X164500000Y-95775000D03*
X157220000Y-83700000D03*
X157950000Y-90150000D03*
X165500000Y-96725000D03*
X181500000Y-97500000D03*
X159450000Y-90150000D03*
X157350000Y-95700000D03*
X166500000Y-94500000D03*
%TO.N,/V_NFC_switched*%
X140910000Y-94100000D03*
X139658032Y-94064539D03*
%TO.N,/V_EH*%
X136050000Y-94950000D03*
X141900000Y-96000000D03*
%TO.N,/AC0*%
X136050000Y-95850000D03*
X132600000Y-93750000D03*
%TD*%
%TO.N,/NFC_SWITCH*%
D15*
X140462784Y-92247216D02*
X141419589Y-91290411D01*
X140032079Y-92247216D02*
X140462784Y-92247216D01*
X141419589Y-91290411D02*
X141978189Y-91290411D01*
X145950000Y-90750000D02*
X145484300Y-90284300D01*
X149100000Y-90750000D02*
X145950000Y-90750000D01*
%TO.N,/V_MCU*%
D16*
X149550000Y-93600000D02*
X149550000Y-92850000D01*
D15*
X140435248Y-93425000D02*
X140260248Y-93600000D01*
X165750000Y-96250000D02*
X163350000Y-96250000D01*
X140954088Y-93196716D02*
X140725804Y-93425000D01*
X138144500Y-93820000D02*
X137900000Y-93575500D01*
X139854784Y-93589539D02*
X139461280Y-93589539D01*
D16*
X149550000Y-92850000D02*
X150600000Y-91800000D01*
D15*
X139865245Y-93600000D02*
X139854784Y-93589539D01*
X139230819Y-93820000D02*
X138144500Y-93820000D01*
X140260248Y-93600000D02*
X139865245Y-93600000D01*
X140725804Y-93425000D02*
X140435248Y-93425000D01*
X166500000Y-95500000D02*
X165750000Y-96250000D01*
X139461280Y-93589539D02*
X139230819Y-93820000D01*
%TO.N,/pd*%
D17*
X157800000Y-92186023D02*
X157800000Y-93300000D01*
X157514477Y-91900500D02*
X157800000Y-92186023D01*
%TO.N,/i2c_scl*%
D15*
X145744500Y-95250000D02*
X150600000Y-95250000D01*
X150600000Y-95250000D02*
X151200000Y-94650000D01*
X143216216Y-92721716D02*
X145744500Y-95250000D01*
X151200000Y-94650000D02*
X158400000Y-94650000D01*
X159000000Y-95250000D02*
X160050000Y-95250000D01*
X160050000Y-95250000D02*
X161700000Y-96900000D01*
X143216216Y-92721716D02*
X143850000Y-92087932D01*
X143850000Y-92087932D02*
X143850000Y-90900000D01*
X163538909Y-97038909D02*
X163500000Y-97000000D01*
X162000000Y-97000000D02*
X161900000Y-96900000D01*
X139493784Y-92721716D02*
X143216216Y-92721716D01*
X161900000Y-96900000D02*
X161700000Y-96900000D01*
X163500000Y-97000000D02*
X162000000Y-97000000D01*
X159000000Y-95250000D02*
X159450000Y-94800000D01*
X138870000Y-93345500D02*
X139493784Y-92721716D01*
X158400000Y-94650000D02*
X159000000Y-95250000D01*
%TO.N,/PSW*%
D17*
X153000000Y-91350000D02*
X150750000Y-93600000D01*
X154544500Y-88034000D02*
X154544500Y-86520000D01*
X155040000Y-88529500D02*
X154544500Y-88034000D01*
X157950000Y-91350000D02*
X153000000Y-91350000D01*
X165300000Y-94350000D02*
X162900000Y-94350000D01*
X165750000Y-94800000D02*
X165300000Y-94350000D01*
X162900000Y-94350000D02*
X162450000Y-93900000D01*
%TO.N,/i2c_sda*%
D15*
X141860736Y-90425000D02*
X144125000Y-90425000D01*
X150750000Y-94249503D02*
X160249503Y-94249503D01*
X163973389Y-92100000D02*
X164075000Y-92201611D01*
X160249503Y-94249503D02*
X162399006Y-92100000D01*
X162450000Y-92100000D02*
X163973389Y-92100000D01*
X140375522Y-91663432D02*
X140622304Y-91663432D01*
X141199999Y-91085737D02*
X141860736Y-90425000D01*
X144125000Y-90425000D02*
X145950000Y-92250000D01*
X162399006Y-92100000D02*
X162450000Y-92100000D01*
X140622304Y-91663432D02*
X141199999Y-91085737D01*
X160249503Y-94249503D02*
X161700000Y-95700000D01*
%TO.N,/swdio*%
D17*
X156655785Y-86941446D02*
X155569500Y-85855161D01*
X161360000Y-88460000D02*
X159841446Y-86941446D01*
X159841446Y-86941446D02*
X156655785Y-86941446D01*
X155569500Y-85855161D02*
X155569500Y-84860000D01*
%TO.N,/swclk*%
X157660000Y-88390000D02*
X156260000Y-88390000D01*
X156260000Y-88390000D02*
X155160000Y-87290000D01*
%TO.N,/V_NFC_switched*%
D15*
X139658032Y-94064539D02*
X140874539Y-94064539D01*
X140874539Y-94064539D02*
X140910000Y-94100000D01*
%TO.N,/V_EH*%
D17*
X140850000Y-94950000D02*
X141900000Y-96000000D01*
X136050000Y-94950000D02*
X140850000Y-94950000D01*
%TO.N,/AC0*%
D15*
X134850000Y-91050000D02*
X134850000Y-97050000D01*
X135450000Y-90450000D02*
X135450000Y-95250000D01*
X133950000Y-96150000D02*
X121950000Y-96150000D01*
X121950000Y-96150000D02*
X121950000Y-91650000D01*
X134550000Y-91350000D02*
X134550000Y-96750000D01*
X133950000Y-91950000D02*
X133950000Y-96150000D01*
X134250000Y-91650000D02*
X134250000Y-96450000D01*
X121650000Y-96450000D02*
X121650000Y-91350000D01*
X121650000Y-91350000D02*
X134550000Y-91350000D01*
X133650000Y-95850000D02*
X122250000Y-95850000D01*
X134850000Y-97050000D02*
X121050000Y-97050000D01*
X121350000Y-91050000D02*
X134850000Y-91050000D01*
X122250000Y-91950000D02*
X133950000Y-91950000D01*
X133650000Y-92250000D02*
X133650000Y-95850000D01*
X121050000Y-97050000D02*
X121050000Y-90750000D01*
X133350000Y-92550000D02*
X133350000Y-95550000D01*
X134250000Y-96450000D02*
X121650000Y-96450000D01*
X122850000Y-92550000D02*
X133350000Y-92550000D01*
X135150000Y-90750000D02*
X135150000Y-97350000D01*
X122550000Y-92250000D02*
X133650000Y-92250000D01*
X122550000Y-95550000D02*
X122550000Y-92250000D01*
X134550000Y-96750000D02*
X121350000Y-96750000D01*
X120750000Y-97350000D02*
X120750000Y-90450000D01*
X120750000Y-90450000D02*
X135450000Y-90450000D01*
X132600000Y-93750000D02*
X131100000Y-95250000D01*
X122250000Y-95850000D02*
X122250000Y-91950000D01*
X122850000Y-95250000D02*
X122850000Y-92550000D01*
X135450000Y-95250000D02*
X136050000Y-95850000D01*
X121950000Y-91650000D02*
X134250000Y-91650000D01*
X131100000Y-95250000D02*
X122850000Y-95250000D01*
X135150000Y-97350000D02*
X120750000Y-97350000D01*
X121050000Y-90750000D02*
X135150000Y-90750000D01*
X121350000Y-96750000D02*
X121350000Y-91050000D01*
X133350000Y-95550000D02*
X122550000Y-95550000D01*
%TD*%
%TA.AperFunction,Conductor*%
%TO.N,GND*%
G36*
X156272539Y-79550185D02*
G01*
X156318294Y-79602989D01*
X156329500Y-79654500D01*
X156329500Y-83019829D01*
X156346068Y-83059828D01*
X156367636Y-83111897D01*
X156438103Y-83182364D01*
X156530172Y-83220500D01*
X164710500Y-83220500D01*
X164777539Y-83240185D01*
X164823294Y-83292989D01*
X164834500Y-83344500D01*
X164834500Y-89750172D01*
X164834500Y-89849828D01*
X164872636Y-89941897D01*
X164943103Y-90012364D01*
X165035172Y-90050500D01*
X166125500Y-90050500D01*
X166192539Y-90070185D01*
X166238294Y-90122989D01*
X166249500Y-90174500D01*
X166249500Y-92549829D01*
X166287636Y-92641897D01*
X166780565Y-93134825D01*
X166780568Y-93134829D01*
X166787636Y-93141897D01*
X166858103Y-93212364D01*
X166877224Y-93220284D01*
X166877225Y-93220285D01*
X166877226Y-93220285D01*
X166950172Y-93250501D01*
X166950173Y-93250501D01*
X167064262Y-93250501D01*
X167064270Y-93250500D01*
X182555829Y-93250500D01*
X182590241Y-93250500D01*
X182609639Y-93252027D01*
X182626026Y-93254622D01*
X182657700Y-93259639D01*
X182694595Y-93271627D01*
X182729153Y-93289235D01*
X182760540Y-93312039D01*
X182787960Y-93339459D01*
X182810764Y-93370846D01*
X182828372Y-93405404D01*
X182840360Y-93442297D01*
X182847973Y-93490356D01*
X182849500Y-93509757D01*
X182849500Y-97610240D01*
X182847973Y-97629640D01*
X182840360Y-97677701D01*
X182828372Y-97714595D01*
X182810764Y-97749153D01*
X182787960Y-97780540D01*
X182760540Y-97807960D01*
X182729153Y-97830764D01*
X182694595Y-97848372D01*
X182657701Y-97860360D01*
X182624355Y-97865642D01*
X182609638Y-97867973D01*
X182590241Y-97869500D01*
X135460415Y-97869500D01*
X135393376Y-97849815D01*
X135347621Y-97797011D01*
X135337677Y-97727853D01*
X135366702Y-97664297D01*
X135375036Y-97656443D01*
X135374815Y-97656222D01*
X135411038Y-97619999D01*
X135450475Y-97580562D01*
X135499910Y-97494938D01*
X135525500Y-97399435D01*
X135525500Y-96397615D01*
X135545185Y-96330576D01*
X135597989Y-96284821D01*
X135667147Y-96274877D01*
X135711501Y-96290228D01*
X135711981Y-96290505D01*
X135711985Y-96290509D01*
X135837515Y-96362984D01*
X135977525Y-96400500D01*
X135977528Y-96400500D01*
X136122472Y-96400500D01*
X136122475Y-96400500D01*
X136262485Y-96362984D01*
X136388015Y-96290509D01*
X136490509Y-96188015D01*
X136562984Y-96062485D01*
X136600500Y-95922475D01*
X136600500Y-95777525D01*
X136562984Y-95637515D01*
X136557217Y-95627527D01*
X136504663Y-95536500D01*
X136488190Y-95468600D01*
X136511042Y-95402573D01*
X136565963Y-95359383D01*
X136612050Y-95350500D01*
X140632745Y-95350500D01*
X140699784Y-95370185D01*
X140720426Y-95386819D01*
X141313181Y-95979574D01*
X141346666Y-96040897D01*
X141349500Y-96067255D01*
X141349500Y-96072475D01*
X141387016Y-96212485D01*
X141387017Y-96212488D01*
X141459488Y-96338011D01*
X141459490Y-96338013D01*
X141459491Y-96338015D01*
X141561985Y-96440509D01*
X141561986Y-96440510D01*
X141561988Y-96440511D01*
X141687511Y-96512982D01*
X141687512Y-96512982D01*
X141687515Y-96512984D01*
X141827525Y-96550500D01*
X141827528Y-96550500D01*
X141972472Y-96550500D01*
X141972475Y-96550500D01*
X142112485Y-96512984D01*
X142238015Y-96440509D01*
X142340509Y-96338015D01*
X142412984Y-96212485D01*
X142450500Y-96072475D01*
X142450500Y-95927525D01*
X142412984Y-95787515D01*
X142407217Y-95777527D01*
X142340511Y-95661988D01*
X142340506Y-95661982D01*
X142238017Y-95559493D01*
X142238011Y-95559488D01*
X142112488Y-95487017D01*
X142112489Y-95487017D01*
X142101006Y-95483940D01*
X141972475Y-95449500D01*
X141972472Y-95449500D01*
X141967255Y-95449500D01*
X141900216Y-95429815D01*
X141879574Y-95413181D01*
X141209424Y-94743030D01*
X141175939Y-94681707D01*
X141180923Y-94612015D01*
X141222795Y-94556082D01*
X141235101Y-94547964D01*
X141248015Y-94540509D01*
X141350509Y-94438015D01*
X141422984Y-94312485D01*
X141460500Y-94172475D01*
X141460500Y-94027525D01*
X141422984Y-93887515D01*
X141421016Y-93884107D01*
X141350511Y-93761988D01*
X141350506Y-93761982D01*
X141346607Y-93758083D01*
X141313122Y-93696760D01*
X141318106Y-93627068D01*
X141346607Y-93582721D01*
X141367346Y-93561982D01*
X141394597Y-93534731D01*
X141467072Y-93409201D01*
X141504588Y-93269191D01*
X141504588Y-93221216D01*
X141524273Y-93154177D01*
X141577077Y-93108422D01*
X141628588Y-93097216D01*
X143009317Y-93097216D01*
X143076356Y-93116901D01*
X143096998Y-93133535D01*
X145513938Y-95550475D01*
X145599563Y-95599911D01*
X145695064Y-95625500D01*
X145695065Y-95625500D01*
X150145614Y-95625500D01*
X150212653Y-95645185D01*
X150233295Y-95661819D01*
X150261985Y-95690509D01*
X150261986Y-95690510D01*
X150261988Y-95690511D01*
X150387511Y-95762982D01*
X150387512Y-95762982D01*
X150387515Y-95762984D01*
X150527525Y-95800500D01*
X150527528Y-95800500D01*
X150672472Y-95800500D01*
X150672475Y-95800500D01*
X150812485Y-95762984D01*
X150938015Y-95690509D01*
X151040509Y-95588015D01*
X151112984Y-95462485D01*
X151150500Y-95322475D01*
X151150500Y-95281899D01*
X151170185Y-95214860D01*
X151186819Y-95194218D01*
X151319218Y-95061819D01*
X151380541Y-95028334D01*
X151406899Y-95025500D01*
X158193101Y-95025500D01*
X158260140Y-95045185D01*
X158280782Y-95061819D01*
X158699525Y-95480562D01*
X158769438Y-95550475D01*
X158834463Y-95588017D01*
X158855062Y-95599910D01*
X158902811Y-95612705D01*
X158902812Y-95612705D01*
X158912903Y-95615408D01*
X158950564Y-95625500D01*
X158950565Y-95625500D01*
X159843101Y-95625500D01*
X159910140Y-95645185D01*
X159930782Y-95661819D01*
X161113181Y-96844218D01*
X161146666Y-96905541D01*
X161149500Y-96931899D01*
X161149500Y-96972475D01*
X161186720Y-97111381D01*
X161187017Y-97112488D01*
X161259488Y-97238011D01*
X161259490Y-97238013D01*
X161259491Y-97238015D01*
X161361985Y-97340509D01*
X161361986Y-97340510D01*
X161361988Y-97340511D01*
X161487511Y-97412982D01*
X161487512Y-97412982D01*
X161487515Y-97412984D01*
X161627525Y-97450500D01*
X161627528Y-97450500D01*
X161772472Y-97450500D01*
X161772475Y-97450500D01*
X161912485Y-97412984D01*
X161948634Y-97392112D01*
X162010635Y-97375500D01*
X163045613Y-97375500D01*
X163112652Y-97395185D01*
X163133294Y-97411818D01*
X163200894Y-97479418D01*
X163200896Y-97479419D01*
X163200897Y-97479420D01*
X163326420Y-97551891D01*
X163326421Y-97551891D01*
X163326424Y-97551893D01*
X163466434Y-97589409D01*
X163466437Y-97589409D01*
X163611381Y-97589409D01*
X163611384Y-97589409D01*
X163751394Y-97551893D01*
X163876924Y-97479418D01*
X163979418Y-97376924D01*
X164051893Y-97251394D01*
X164089409Y-97111384D01*
X164089409Y-96966434D01*
X164051893Y-96826424D01*
X164043276Y-96811500D01*
X164026804Y-96743601D01*
X164049656Y-96677574D01*
X164104577Y-96634383D01*
X164150664Y-96625500D01*
X165799435Y-96625500D01*
X165799436Y-96625500D01*
X165847186Y-96612705D01*
X165894938Y-96599910D01*
X165980562Y-96550475D01*
X166050475Y-96480562D01*
X166444218Y-96086819D01*
X166505541Y-96053334D01*
X166531899Y-96050500D01*
X166572472Y-96050500D01*
X166572475Y-96050500D01*
X166712485Y-96012984D01*
X166838015Y-95940509D01*
X166940509Y-95838015D01*
X167012984Y-95712485D01*
X167050500Y-95572475D01*
X167050500Y-95427525D01*
X167012984Y-95287515D01*
X166996805Y-95259493D01*
X166940511Y-95161988D01*
X166940506Y-95161982D01*
X166838017Y-95059493D01*
X166838011Y-95059488D01*
X166712488Y-94987017D01*
X166712489Y-94987017D01*
X166701006Y-94983940D01*
X166572475Y-94949500D01*
X166427525Y-94949500D01*
X166424500Y-94949500D01*
X166357461Y-94929815D01*
X166311706Y-94877011D01*
X166300500Y-94825500D01*
X166300500Y-94727527D01*
X166300500Y-94727525D01*
X166262984Y-94587515D01*
X166240147Y-94547961D01*
X166190511Y-94461988D01*
X166190506Y-94461982D01*
X166088017Y-94359493D01*
X166088011Y-94359488D01*
X165962488Y-94287017D01*
X165962489Y-94287017D01*
X165931207Y-94278635D01*
X165822475Y-94249500D01*
X165822472Y-94249500D01*
X165817255Y-94249500D01*
X165750216Y-94229815D01*
X165729574Y-94213181D01*
X165545915Y-94029522D01*
X165545913Y-94029520D01*
X165471834Y-93986750D01*
X165454589Y-93976793D01*
X165403657Y-93963146D01*
X165352727Y-93949500D01*
X165352726Y-93949500D01*
X163124500Y-93949500D01*
X163057461Y-93929815D01*
X163011706Y-93877011D01*
X163002662Y-93835439D01*
X163001561Y-93835585D01*
X163000500Y-93827528D01*
X163000500Y-93827527D01*
X163000500Y-93827525D01*
X162962984Y-93687515D01*
X162957217Y-93677527D01*
X162890511Y-93561988D01*
X162890506Y-93561982D01*
X162788017Y-93459493D01*
X162788011Y-93459488D01*
X162662488Y-93387017D01*
X162662489Y-93387017D01*
X162651006Y-93383940D01*
X162522475Y-93349500D01*
X162377525Y-93349500D01*
X162248993Y-93383940D01*
X162237511Y-93387017D01*
X162111988Y-93459488D01*
X162111982Y-93459493D01*
X162009493Y-93561982D01*
X162009488Y-93561988D01*
X161937017Y-93687511D01*
X161937016Y-93687515D01*
X161899500Y-93827525D01*
X161899500Y-93972475D01*
X161930585Y-94088484D01*
X161937017Y-94112488D01*
X162009488Y-94238011D01*
X162009490Y-94238013D01*
X162009491Y-94238015D01*
X162111985Y-94340509D01*
X162111986Y-94340510D01*
X162111988Y-94340511D01*
X162237511Y-94412982D01*
X162237512Y-94412982D01*
X162237515Y-94412984D01*
X162377525Y-94450500D01*
X162382745Y-94450500D01*
X162449784Y-94470185D01*
X162470426Y-94486819D01*
X162654087Y-94670480D01*
X162745412Y-94723207D01*
X162847273Y-94750500D01*
X162952727Y-94750500D01*
X165075500Y-94750500D01*
X165142539Y-94770185D01*
X165188294Y-94822989D01*
X165197337Y-94864560D01*
X165198439Y-94864415D01*
X165199499Y-94872471D01*
X165199500Y-94872474D01*
X165199500Y-94872475D01*
X165214864Y-94929815D01*
X165237017Y-95012488D01*
X165309488Y-95138011D01*
X165309490Y-95138013D01*
X165309491Y-95138015D01*
X165411985Y-95240509D01*
X165411986Y-95240510D01*
X165411988Y-95240511D01*
X165537511Y-95312982D01*
X165537512Y-95312982D01*
X165537515Y-95312984D01*
X165677525Y-95350500D01*
X165677528Y-95350500D01*
X165819101Y-95350500D01*
X165886140Y-95370185D01*
X165931895Y-95422989D01*
X165941839Y-95492147D01*
X165912814Y-95555703D01*
X165906782Y-95562181D01*
X165630782Y-95838181D01*
X165569459Y-95871666D01*
X165543101Y-95874500D01*
X163804386Y-95874500D01*
X163737347Y-95854815D01*
X163716705Y-95838181D01*
X163688017Y-95809493D01*
X163688011Y-95809488D01*
X163562488Y-95737017D01*
X163562489Y-95737017D01*
X163551006Y-95733940D01*
X163422475Y-95699500D01*
X163277525Y-95699500D01*
X163148993Y-95733940D01*
X163137511Y-95737017D01*
X163011988Y-95809488D01*
X163011982Y-95809493D01*
X162909493Y-95911982D01*
X162909488Y-95911988D01*
X162837017Y-96037511D01*
X162837016Y-96037515D01*
X162799500Y-96177525D01*
X162799500Y-96322475D01*
X162837016Y-96462485D01*
X162838603Y-96468406D01*
X162836940Y-96538256D01*
X162797778Y-96596119D01*
X162733549Y-96623623D01*
X162718828Y-96624500D01*
X162248193Y-96624500D01*
X162181154Y-96604815D01*
X162146035Y-96567985D01*
X162145455Y-96568431D01*
X162141312Y-96563031D01*
X162140808Y-96562503D01*
X162140508Y-96561984D01*
X162038017Y-96459493D01*
X162038015Y-96459491D01*
X161991346Y-96432546D01*
X161947769Y-96407387D01*
X161899553Y-96356820D01*
X161886331Y-96288213D01*
X161912299Y-96223348D01*
X161947769Y-96192613D01*
X161973898Y-96177527D01*
X162038015Y-96140509D01*
X162140509Y-96038015D01*
X162212984Y-95912485D01*
X162250500Y-95772475D01*
X162250500Y-95627525D01*
X162212984Y-95487515D01*
X162212696Y-95487017D01*
X162140511Y-95361988D01*
X162140506Y-95361982D01*
X162038017Y-95259493D01*
X162038011Y-95259488D01*
X161912488Y-95187017D01*
X161912489Y-95187017D01*
X161901006Y-95183940D01*
X161772475Y-95149500D01*
X161772472Y-95149500D01*
X161731899Y-95149500D01*
X161664860Y-95129815D01*
X161644218Y-95113181D01*
X160868221Y-94337184D01*
X160834736Y-94275861D01*
X160839720Y-94206169D01*
X160868221Y-94161822D01*
X162343224Y-92686819D01*
X162404547Y-92653334D01*
X162430905Y-92650500D01*
X162522472Y-92650500D01*
X162522475Y-92650500D01*
X162662485Y-92612984D01*
X162788015Y-92540509D01*
X162816705Y-92511819D01*
X162878028Y-92478334D01*
X162904386Y-92475500D01*
X163525876Y-92475500D01*
X163592915Y-92495185D01*
X163629308Y-92533353D01*
X163629541Y-92533175D01*
X163631198Y-92535334D01*
X163633262Y-92537499D01*
X163634486Y-92539619D01*
X163634490Y-92539624D01*
X163634491Y-92539626D01*
X163736985Y-92642120D01*
X163736986Y-92642121D01*
X163736988Y-92642122D01*
X163862511Y-92714593D01*
X163862512Y-92714593D01*
X163862515Y-92714595D01*
X164002525Y-92752111D01*
X164002528Y-92752111D01*
X164147472Y-92752111D01*
X164147475Y-92752111D01*
X164287485Y-92714595D01*
X164413015Y-92642120D01*
X164515509Y-92539626D01*
X164587984Y-92414096D01*
X164625500Y-92274086D01*
X164625500Y-92129136D01*
X164587984Y-91989126D01*
X164578657Y-91972972D01*
X164515511Y-91863599D01*
X164515506Y-91863593D01*
X164413017Y-91761104D01*
X164413011Y-91761099D01*
X164287488Y-91688628D01*
X164287489Y-91688628D01*
X164276006Y-91685551D01*
X164147475Y-91651111D01*
X164002525Y-91651111D01*
X163918519Y-91673620D01*
X163862513Y-91688627D01*
X163862512Y-91688628D01*
X163843682Y-91699500D01*
X163834477Y-91704815D01*
X163829156Y-91707887D01*
X163767156Y-91724500D01*
X162904386Y-91724500D01*
X162837347Y-91704815D01*
X162816705Y-91688181D01*
X162788017Y-91659493D01*
X162788011Y-91659488D01*
X162662488Y-91587017D01*
X162662489Y-91587017D01*
X162651006Y-91583940D01*
X162522475Y-91549500D01*
X162377525Y-91549500D01*
X162248993Y-91583940D01*
X162237511Y-91587017D01*
X162111988Y-91659488D01*
X162111982Y-91659493D01*
X162009493Y-91761982D01*
X162009488Y-91761988D01*
X161937017Y-91887511D01*
X161899498Y-92027532D01*
X161898785Y-92032951D01*
X161870515Y-92096846D01*
X161863528Y-92104440D01*
X160130285Y-93837684D01*
X160068962Y-93871169D01*
X160042604Y-93874003D01*
X158303883Y-93874003D01*
X158236844Y-93854318D01*
X158191089Y-93801514D01*
X158181145Y-93732356D01*
X158210170Y-93668800D01*
X158216202Y-93662322D01*
X158217012Y-93661512D01*
X158240509Y-93638015D01*
X158312984Y-93512485D01*
X158350500Y-93372475D01*
X158350500Y-93227525D01*
X158312984Y-93087515D01*
X158312696Y-93087017D01*
X158240511Y-92961988D01*
X158240506Y-92961982D01*
X158236819Y-92958295D01*
X158203334Y-92896972D01*
X158200500Y-92870614D01*
X158200500Y-92133298D01*
X158200500Y-92133296D01*
X158173207Y-92031436D01*
X158159584Y-92007841D01*
X158143111Y-91939942D01*
X158165963Y-91873915D01*
X158204969Y-91838455D01*
X158288015Y-91790509D01*
X158390509Y-91688015D01*
X158462984Y-91562485D01*
X158500500Y-91422475D01*
X158500500Y-91277525D01*
X158462984Y-91137515D01*
X158443685Y-91104089D01*
X158390511Y-91011988D01*
X158390506Y-91011982D01*
X158288017Y-90909493D01*
X158288011Y-90909488D01*
X158162488Y-90837017D01*
X158162489Y-90837017D01*
X158151006Y-90833940D01*
X158022475Y-90799500D01*
X157877525Y-90799500D01*
X157748993Y-90833940D01*
X157737511Y-90837017D01*
X157611988Y-90909488D01*
X157611982Y-90909493D01*
X157608295Y-90913181D01*
X157546972Y-90946666D01*
X157520614Y-90949500D01*
X153060339Y-90949500D01*
X153060323Y-90949499D01*
X153052727Y-90949499D01*
X152947274Y-90949499D01*
X152845413Y-90976793D01*
X152784454Y-91011988D01*
X152754084Y-91029522D01*
X150770426Y-93013181D01*
X150709103Y-93046666D01*
X150682745Y-93049500D01*
X150677525Y-93049500D01*
X150548993Y-93083940D01*
X150537511Y-93087017D01*
X150411988Y-93159488D01*
X150411982Y-93159493D01*
X150309493Y-93261982D01*
X150309489Y-93261988D01*
X150257385Y-93352232D01*
X150206817Y-93400446D01*
X150138210Y-93413668D01*
X150073346Y-93387699D01*
X150042611Y-93352228D01*
X150017112Y-93308061D01*
X150000500Y-93246063D01*
X150000500Y-93087964D01*
X150020185Y-93020925D01*
X150036815Y-93000287D01*
X150668281Y-92368820D01*
X150723864Y-92336729D01*
X150812485Y-92312984D01*
X150938015Y-92240509D01*
X151040509Y-92138015D01*
X151112984Y-92012485D01*
X151150500Y-91872475D01*
X151150500Y-91727525D01*
X151112984Y-91587515D01*
X151112696Y-91587017D01*
X151040511Y-91461988D01*
X151040506Y-91461982D01*
X150938017Y-91359493D01*
X150938011Y-91359488D01*
X150812488Y-91287017D01*
X150812489Y-91287017D01*
X150801006Y-91283940D01*
X150672475Y-91249500D01*
X150527525Y-91249500D01*
X150398993Y-91283940D01*
X150387511Y-91287017D01*
X150261988Y-91359488D01*
X150261982Y-91359493D01*
X150159493Y-91461982D01*
X150159488Y-91461988D01*
X150087017Y-91587511D01*
X150087014Y-91587518D01*
X150063269Y-91676133D01*
X150031176Y-91731719D01*
X149189513Y-92573383D01*
X149189509Y-92573389D01*
X149130201Y-92676112D01*
X149130200Y-92676117D01*
X149099500Y-92790691D01*
X149099500Y-93246063D01*
X149082887Y-93308062D01*
X149037019Y-93387508D01*
X149037016Y-93387513D01*
X149031205Y-93409201D01*
X148999500Y-93527525D01*
X148999500Y-93672475D01*
X149035220Y-93805782D01*
X149037017Y-93812488D01*
X149109488Y-93938011D01*
X149109490Y-93938013D01*
X149109491Y-93938015D01*
X149211985Y-94040509D01*
X149211986Y-94040510D01*
X149211988Y-94040511D01*
X149337511Y-94112982D01*
X149337512Y-94112982D01*
X149337515Y-94112984D01*
X149477525Y-94150500D01*
X149477528Y-94150500D01*
X149622472Y-94150500D01*
X149622475Y-94150500D01*
X149762485Y-94112984D01*
X149888015Y-94040509D01*
X149990509Y-93938015D01*
X150042613Y-93847769D01*
X150093180Y-93799553D01*
X150161787Y-93786331D01*
X150226652Y-93812299D01*
X150257386Y-93847766D01*
X150261168Y-93854318D01*
X150266037Y-93862750D01*
X150282510Y-93930650D01*
X150266038Y-93986750D01*
X150237016Y-94037017D01*
X150236080Y-94040511D01*
X150199500Y-94177028D01*
X150199500Y-94321978D01*
X150237015Y-94461985D01*
X150237017Y-94461991D01*
X150309488Y-94587514D01*
X150309493Y-94587520D01*
X150318559Y-94596586D01*
X150352044Y-94657909D01*
X150347060Y-94727601D01*
X150305188Y-94783534D01*
X150292880Y-94791653D01*
X150261988Y-94809489D01*
X150261982Y-94809493D01*
X150233295Y-94838181D01*
X150171972Y-94871666D01*
X150145614Y-94874500D01*
X145951399Y-94874500D01*
X145884360Y-94854815D01*
X145863718Y-94838181D01*
X143834934Y-92809397D01*
X143801449Y-92748074D01*
X143806433Y-92678382D01*
X143834934Y-92634035D01*
X144150471Y-92318498D01*
X144150474Y-92318495D01*
X144161478Y-92299436D01*
X144199910Y-92232870D01*
X144218963Y-92161763D01*
X144225500Y-92137368D01*
X144225500Y-92038496D01*
X144225500Y-91355899D01*
X144245185Y-91288860D01*
X144297989Y-91243105D01*
X144367147Y-91233161D01*
X144430703Y-91262186D01*
X144437181Y-91268218D01*
X145363181Y-92194218D01*
X145396666Y-92255541D01*
X145399500Y-92281899D01*
X145399500Y-92322475D01*
X145437016Y-92462485D01*
X145437017Y-92462488D01*
X145509488Y-92588011D01*
X145509490Y-92588013D01*
X145509491Y-92588015D01*
X145611985Y-92690509D01*
X145611986Y-92690510D01*
X145611988Y-92690511D01*
X145737511Y-92762982D01*
X145737512Y-92762982D01*
X145737515Y-92762984D01*
X145877525Y-92800500D01*
X145877528Y-92800500D01*
X146022472Y-92800500D01*
X146022475Y-92800500D01*
X146162485Y-92762984D01*
X146288015Y-92690509D01*
X146390509Y-92588015D01*
X146462984Y-92462485D01*
X146500500Y-92322475D01*
X146500500Y-92177525D01*
X146462984Y-92037515D01*
X146461374Y-92034727D01*
X146390511Y-91911988D01*
X146390506Y-91911982D01*
X146288017Y-91809493D01*
X146288011Y-91809488D01*
X146162488Y-91737017D01*
X146162489Y-91737017D01*
X146146665Y-91732777D01*
X146022475Y-91699500D01*
X146022472Y-91699500D01*
X145981900Y-91699500D01*
X145914861Y-91679815D01*
X145894219Y-91663181D01*
X145266427Y-91035389D01*
X145232942Y-90974066D01*
X145237926Y-90904374D01*
X145279798Y-90848441D01*
X145345262Y-90824024D01*
X145386199Y-90827933D01*
X145411825Y-90834800D01*
X145452401Y-90834800D01*
X145519440Y-90854485D01*
X145540082Y-90871119D01*
X145649525Y-90980562D01*
X145719438Y-91050475D01*
X145805062Y-91099910D01*
X145820648Y-91104086D01*
X145820650Y-91104087D01*
X145820651Y-91104087D01*
X145900564Y-91125500D01*
X145900565Y-91125500D01*
X148645614Y-91125500D01*
X148712653Y-91145185D01*
X148733295Y-91161819D01*
X148761985Y-91190509D01*
X148761986Y-91190510D01*
X148761988Y-91190511D01*
X148887511Y-91262982D01*
X148887512Y-91262982D01*
X148887515Y-91262984D01*
X149027525Y-91300500D01*
X149027528Y-91300500D01*
X149172472Y-91300500D01*
X149172475Y-91300500D01*
X149312485Y-91262984D01*
X149438015Y-91190509D01*
X149540509Y-91088015D01*
X149612984Y-90962485D01*
X149650500Y-90822475D01*
X149650500Y-90677525D01*
X149612984Y-90537515D01*
X149592579Y-90502173D01*
X149540511Y-90411988D01*
X149540506Y-90411982D01*
X149438017Y-90309493D01*
X149438011Y-90309488D01*
X149312488Y-90237017D01*
X149312489Y-90237017D01*
X149273239Y-90226500D01*
X149172475Y-90199500D01*
X149027525Y-90199500D01*
X148926761Y-90226500D01*
X148887511Y-90237017D01*
X148761988Y-90309488D01*
X148761982Y-90309493D01*
X148733295Y-90338181D01*
X148671972Y-90371666D01*
X148645614Y-90374500D01*
X146158800Y-90374500D01*
X146091761Y-90354815D01*
X146046006Y-90302011D01*
X146034800Y-90250500D01*
X146034800Y-90211827D01*
X146034800Y-90211825D01*
X145997284Y-90071815D01*
X145984400Y-90049500D01*
X145924811Y-89946288D01*
X145924806Y-89946282D01*
X145822317Y-89843793D01*
X145822311Y-89843788D01*
X145696788Y-89771317D01*
X145696789Y-89771317D01*
X145685306Y-89768240D01*
X145556775Y-89733800D01*
X145411825Y-89733800D01*
X145283293Y-89768240D01*
X145271811Y-89771317D01*
X145146288Y-89843788D01*
X145146282Y-89843793D01*
X145043793Y-89946282D01*
X145043788Y-89946288D01*
X144971317Y-90071811D01*
X144970438Y-90075090D01*
X144933800Y-90211825D01*
X144933800Y-90211827D01*
X144933800Y-90356776D01*
X144940666Y-90382400D01*
X144939003Y-90452249D01*
X144899840Y-90510112D01*
X144835611Y-90537615D01*
X144766709Y-90526028D01*
X144733210Y-90502173D01*
X144355563Y-90124526D01*
X144355562Y-90124525D01*
X144269940Y-90075091D01*
X144269939Y-90075090D01*
X144190248Y-90053737D01*
X144174436Y-90049500D01*
X144174435Y-90049500D01*
X141910172Y-90049500D01*
X141811300Y-90049500D01*
X141811299Y-90049500D01*
X141795487Y-90053736D01*
X141795488Y-90053737D01*
X141715796Y-90075090D01*
X141715795Y-90075091D01*
X141630172Y-90124526D01*
X141257914Y-90496785D01*
X140969436Y-90785263D01*
X140725178Y-91029520D01*
X140651440Y-91103258D01*
X140590117Y-91136742D01*
X140531666Y-91135351D01*
X140487464Y-91123507D01*
X140447997Y-91112932D01*
X140303047Y-91112932D01*
X140182679Y-91145185D01*
X140163033Y-91150449D01*
X140037510Y-91222920D01*
X140037504Y-91222925D01*
X139935015Y-91325414D01*
X139935010Y-91325420D01*
X139862539Y-91450943D01*
X139862538Y-91450947D01*
X139825022Y-91590957D01*
X139825022Y-91590959D01*
X139825022Y-91659507D01*
X139805337Y-91726546D01*
X139763022Y-91766894D01*
X139694067Y-91806705D01*
X139694061Y-91806709D01*
X139591572Y-91909198D01*
X139591567Y-91909204D01*
X139519096Y-92034727D01*
X139519095Y-92034731D01*
X139481579Y-92174741D01*
X139481579Y-92174743D01*
X139481579Y-92241091D01*
X139461894Y-92308130D01*
X139409090Y-92353885D01*
X139389673Y-92360866D01*
X139348845Y-92371805D01*
X139348844Y-92371806D01*
X139263224Y-92421238D01*
X139263219Y-92421242D01*
X138925782Y-92758681D01*
X138864459Y-92792166D01*
X138838101Y-92795000D01*
X138797525Y-92795000D01*
X138668993Y-92829440D01*
X138657511Y-92832517D01*
X138531988Y-92904988D01*
X138531982Y-92904993D01*
X138429493Y-93007482D01*
X138429489Y-93007488D01*
X138388408Y-93078640D01*
X138337840Y-93126855D01*
X138269233Y-93140076D01*
X138219022Y-93124025D01*
X138112488Y-93062517D01*
X138112489Y-93062517D01*
X138101006Y-93059440D01*
X137972475Y-93025000D01*
X137827525Y-93025000D01*
X137698993Y-93059440D01*
X137687511Y-93062517D01*
X137561988Y-93134988D01*
X137561982Y-93134993D01*
X137459493Y-93237482D01*
X137459488Y-93237488D01*
X137387017Y-93363011D01*
X137387016Y-93363015D01*
X137349500Y-93503025D01*
X137349500Y-93647975D01*
X137380050Y-93761988D01*
X137387017Y-93787988D01*
X137459488Y-93913511D01*
X137459490Y-93913513D01*
X137459491Y-93913515D01*
X137561985Y-94016009D01*
X137561986Y-94016010D01*
X137561988Y-94016011D01*
X137687511Y-94088482D01*
X137687512Y-94088482D01*
X137687515Y-94088484D01*
X137827525Y-94126000D01*
X137890282Y-94126000D01*
X137952281Y-94142612D01*
X137999562Y-94169910D01*
X138026127Y-94177028D01*
X138095064Y-94195500D01*
X138095065Y-94195500D01*
X139028425Y-94195500D01*
X139095464Y-94215185D01*
X139141219Y-94267989D01*
X139142986Y-94272046D01*
X139145047Y-94277023D01*
X139160238Y-94303334D01*
X139192660Y-94359491D01*
X139194975Y-94363499D01*
X139211448Y-94431399D01*
X139188596Y-94497427D01*
X139133675Y-94540617D01*
X139087588Y-94549500D01*
X136479386Y-94549500D01*
X136412347Y-94529815D01*
X136391705Y-94513181D01*
X136388017Y-94509493D01*
X136388011Y-94509488D01*
X136262488Y-94437017D01*
X136262489Y-94437017D01*
X136241522Y-94431399D01*
X136122475Y-94399500D01*
X135977525Y-94399500D01*
X135977523Y-94399500D01*
X135969469Y-94400561D01*
X135969147Y-94398115D01*
X135911732Y-94396743D01*
X135853874Y-94357576D01*
X135826376Y-94293345D01*
X135825500Y-94278635D01*
X135825500Y-90400567D01*
X135825500Y-90400565D01*
X135799910Y-90305062D01*
X135754551Y-90226499D01*
X135738079Y-90158600D01*
X135760931Y-90092573D01*
X135815853Y-90049382D01*
X135861939Y-90040500D01*
X141059826Y-90040500D01*
X141059828Y-90040500D01*
X141151897Y-90002364D01*
X141222364Y-89931897D01*
X141260500Y-89839828D01*
X141260500Y-84755131D01*
X143109500Y-84755131D01*
X143109500Y-86544856D01*
X143109502Y-86544882D01*
X143112413Y-86569987D01*
X143112415Y-86569991D01*
X143157793Y-86672764D01*
X143157794Y-86672765D01*
X143237235Y-86752206D01*
X143340009Y-86797585D01*
X143365135Y-86800500D01*
X145154864Y-86800499D01*
X145154879Y-86800497D01*
X145154882Y-86800497D01*
X145179987Y-86797586D01*
X145179988Y-86797585D01*
X145179991Y-86797585D01*
X145282765Y-86752206D01*
X145362206Y-86672765D01*
X145407585Y-86569991D01*
X145410500Y-86544865D01*
X145410499Y-85807125D01*
X145430183Y-85740089D01*
X145482987Y-85694334D01*
X145552146Y-85684390D01*
X145615702Y-85713415D01*
X145653476Y-85772193D01*
X145656972Y-85787729D01*
X145677829Y-85919410D01*
X145733787Y-86091636D01*
X145733788Y-86091639D01*
X145816006Y-86252997D01*
X145922441Y-86399494D01*
X145922445Y-86399499D01*
X146050500Y-86527554D01*
X146050505Y-86527558D01*
X146178287Y-86620396D01*
X146197006Y-86633996D01*
X146273094Y-86672765D01*
X146358360Y-86716211D01*
X146358363Y-86716212D01*
X146400061Y-86729760D01*
X146530591Y-86772171D01*
X146613429Y-86785291D01*
X146709449Y-86800500D01*
X146709454Y-86800500D01*
X146890551Y-86800500D01*
X146977259Y-86786765D01*
X147069409Y-86772171D01*
X147241639Y-86716211D01*
X147402994Y-86633996D01*
X147549501Y-86527553D01*
X147677553Y-86399501D01*
X147783996Y-86252994D01*
X147866211Y-86091639D01*
X147922171Y-85919409D01*
X147936422Y-85829425D01*
X147947527Y-85759321D01*
X147977456Y-85696186D01*
X148036768Y-85659255D01*
X148106630Y-85660253D01*
X148164863Y-85698863D01*
X148192473Y-85759321D01*
X148217829Y-85919410D01*
X148273787Y-86091636D01*
X148273788Y-86091639D01*
X148356006Y-86252997D01*
X148462441Y-86399494D01*
X148462445Y-86399499D01*
X148590500Y-86527554D01*
X148590505Y-86527558D01*
X148718287Y-86620396D01*
X148737006Y-86633996D01*
X148813094Y-86672765D01*
X148898360Y-86716211D01*
X148898363Y-86716212D01*
X148940061Y-86729760D01*
X149070591Y-86772171D01*
X149153429Y-86785291D01*
X149249449Y-86800500D01*
X149249454Y-86800500D01*
X149430551Y-86800500D01*
X149517259Y-86786765D01*
X149609409Y-86772171D01*
X149781639Y-86716211D01*
X149942994Y-86633996D01*
X150089501Y-86527553D01*
X150217553Y-86399501D01*
X150323996Y-86252994D01*
X150391090Y-86121314D01*
X150439065Y-86070519D01*
X150506886Y-86053724D01*
X150573021Y-86076262D01*
X150616472Y-86130977D01*
X150619506Y-86139292D01*
X150628904Y-86168217D01*
X150725379Y-86357557D01*
X150850272Y-86529459D01*
X150850276Y-86529464D01*
X151000535Y-86679723D01*
X151000540Y-86679727D01*
X151172442Y-86804620D01*
X151361782Y-86901095D01*
X151563871Y-86966757D01*
X151630000Y-86977231D01*
X151630000Y-86083012D01*
X151687007Y-86115925D01*
X151814174Y-86150000D01*
X151945826Y-86150000D01*
X152072993Y-86115925D01*
X152130000Y-86083012D01*
X152130000Y-86977230D01*
X152196126Y-86966757D01*
X152196129Y-86966757D01*
X152398217Y-86901095D01*
X152587557Y-86804620D01*
X152759459Y-86679727D01*
X152759464Y-86679723D01*
X152909723Y-86529464D01*
X152909727Y-86529459D01*
X152969256Y-86447525D01*
X153994000Y-86447525D01*
X153994000Y-86592475D01*
X154027156Y-86716212D01*
X154031517Y-86732488D01*
X154103988Y-86858011D01*
X154103993Y-86858017D01*
X154107681Y-86861705D01*
X154141166Y-86923028D01*
X154144000Y-86949386D01*
X154144000Y-88086726D01*
X154171293Y-88188589D01*
X154197656Y-88234250D01*
X154224020Y-88279913D01*
X154224022Y-88279915D01*
X154453181Y-88509074D01*
X154486666Y-88570397D01*
X154489500Y-88596755D01*
X154489500Y-88601975D01*
X154518574Y-88710479D01*
X154527017Y-88741988D01*
X154599488Y-88867511D01*
X154599490Y-88867513D01*
X154599491Y-88867515D01*
X154701985Y-88970009D01*
X154701986Y-88970010D01*
X154701988Y-88970011D01*
X154827511Y-89042482D01*
X154827512Y-89042482D01*
X154827515Y-89042484D01*
X154967525Y-89080000D01*
X154967528Y-89080000D01*
X155112472Y-89080000D01*
X155112475Y-89080000D01*
X155252485Y-89042484D01*
X155378015Y-88970009D01*
X155480509Y-88867515D01*
X155552984Y-88741985D01*
X155590500Y-88601975D01*
X155590500Y-88586255D01*
X155610185Y-88519216D01*
X155662989Y-88473461D01*
X155732147Y-88463517D01*
X155795703Y-88492542D01*
X155802181Y-88498574D01*
X156014087Y-88710480D01*
X156105412Y-88763207D01*
X156207273Y-88790500D01*
X156312727Y-88790500D01*
X157230614Y-88790500D01*
X157297653Y-88810185D01*
X157318295Y-88826819D01*
X157321985Y-88830509D01*
X157321986Y-88830510D01*
X157321988Y-88830511D01*
X157447511Y-88902982D01*
X157447512Y-88902982D01*
X157447515Y-88902984D01*
X157587525Y-88940500D01*
X157587528Y-88940500D01*
X157732472Y-88940500D01*
X157732475Y-88940500D01*
X157872485Y-88902984D01*
X157998015Y-88830509D01*
X158100509Y-88728015D01*
X158172984Y-88602485D01*
X158210500Y-88462475D01*
X158210500Y-88317525D01*
X158172984Y-88177515D01*
X158140925Y-88121988D01*
X158100511Y-88051988D01*
X158100506Y-88051982D01*
X157998017Y-87949493D01*
X157998011Y-87949488D01*
X157872488Y-87877017D01*
X157872489Y-87877017D01*
X157858173Y-87873181D01*
X157732475Y-87839500D01*
X157587525Y-87839500D01*
X157461827Y-87873181D01*
X157447511Y-87877017D01*
X157321988Y-87949488D01*
X157321982Y-87949493D01*
X157318295Y-87953181D01*
X157256972Y-87986666D01*
X157230614Y-87989500D01*
X156477255Y-87989500D01*
X156410216Y-87969815D01*
X156389574Y-87953181D01*
X155746819Y-87310426D01*
X155713334Y-87249103D01*
X155710500Y-87222745D01*
X155710500Y-87217527D01*
X155710500Y-87217525D01*
X155672984Y-87077515D01*
X155615084Y-86977230D01*
X155600511Y-86951988D01*
X155600506Y-86951982D01*
X155498017Y-86849493D01*
X155498011Y-86849488D01*
X155372488Y-86777017D01*
X155372489Y-86777017D01*
X155354400Y-86772170D01*
X155232475Y-86739500D01*
X155217038Y-86739500D01*
X155149999Y-86719815D01*
X155104244Y-86667011D01*
X155094100Y-86599310D01*
X155095000Y-86592476D01*
X155095000Y-86447527D01*
X155095000Y-86447525D01*
X155057484Y-86307515D01*
X155009176Y-86223844D01*
X154985011Y-86181988D01*
X154985006Y-86181982D01*
X154882517Y-86079493D01*
X154882511Y-86079488D01*
X154756988Y-86007017D01*
X154756989Y-86007017D01*
X154745506Y-86003940D01*
X154616975Y-85969500D01*
X154472025Y-85969500D01*
X154343493Y-86003940D01*
X154332011Y-86007017D01*
X154206488Y-86079488D01*
X154206482Y-86079493D01*
X154103993Y-86181982D01*
X154103988Y-86181988D01*
X154031517Y-86307511D01*
X154031516Y-86307515D01*
X153994000Y-86447525D01*
X152969256Y-86447525D01*
X153028112Y-86366516D01*
X153028113Y-86366515D01*
X153034621Y-86357555D01*
X153131095Y-86168217D01*
X153196757Y-85966129D01*
X153196757Y-85966126D01*
X153207231Y-85900000D01*
X152313012Y-85900000D01*
X152345925Y-85842993D01*
X152380000Y-85715826D01*
X152380000Y-85584174D01*
X152345925Y-85457007D01*
X152313012Y-85400000D01*
X153207231Y-85400000D01*
X153196757Y-85333873D01*
X153196757Y-85333870D01*
X153131095Y-85131782D01*
X153034620Y-84942442D01*
X152969117Y-84852283D01*
X152922067Y-84787525D01*
X155019000Y-84787525D01*
X155019000Y-84932475D01*
X155049688Y-85047002D01*
X155056517Y-85072488D01*
X155128988Y-85198011D01*
X155128993Y-85198017D01*
X155132681Y-85201705D01*
X155166166Y-85263028D01*
X155169000Y-85289386D01*
X155169000Y-85802434D01*
X155169000Y-85907888D01*
X155172087Y-85919409D01*
X155196293Y-86009750D01*
X155219589Y-86050099D01*
X155249020Y-86101074D01*
X156409872Y-87261926D01*
X156501197Y-87314653D01*
X156603058Y-87341946D01*
X159624191Y-87341946D01*
X159691230Y-87361631D01*
X159711872Y-87378265D01*
X160773181Y-88439573D01*
X160806666Y-88500896D01*
X160809500Y-88527254D01*
X160809500Y-88532475D01*
X160847016Y-88672485D01*
X160847017Y-88672488D01*
X160919488Y-88798011D01*
X160919490Y-88798013D01*
X160919491Y-88798015D01*
X161021985Y-88900509D01*
X161021986Y-88900510D01*
X161021988Y-88900511D01*
X161147511Y-88972982D01*
X161147512Y-88972982D01*
X161147515Y-88972984D01*
X161287525Y-89010500D01*
X161287528Y-89010500D01*
X161432472Y-89010500D01*
X161432475Y-89010500D01*
X161572485Y-88972984D01*
X161698015Y-88900509D01*
X161800509Y-88798015D01*
X161872984Y-88672485D01*
X161910500Y-88532475D01*
X161910500Y-88387525D01*
X161872984Y-88247515D01*
X161838962Y-88188588D01*
X161800511Y-88121988D01*
X161800506Y-88121982D01*
X161698017Y-88019493D01*
X161698011Y-88019488D01*
X161572488Y-87947017D01*
X161572489Y-87947017D01*
X161561006Y-87943940D01*
X161432475Y-87909500D01*
X161432472Y-87909500D01*
X161427254Y-87909500D01*
X161360215Y-87889815D01*
X161339573Y-87873181D01*
X160623573Y-87157181D01*
X160590088Y-87095858D01*
X160595072Y-87026166D01*
X160636944Y-86970233D01*
X160702408Y-86945816D01*
X160711254Y-86945500D01*
X160808844Y-86945500D01*
X160808845Y-86945499D01*
X160963497Y-86914737D01*
X161109179Y-86854394D01*
X161240289Y-86766789D01*
X161256772Y-86750306D01*
X161277319Y-86729760D01*
X161338642Y-86696275D01*
X161408334Y-86701259D01*
X161452681Y-86729760D01*
X161489707Y-86766786D01*
X161489711Y-86766789D01*
X161620814Y-86854390D01*
X161620827Y-86854397D01*
X161733568Y-86901095D01*
X161766503Y-86914737D01*
X161921153Y-86945499D01*
X161921156Y-86945500D01*
X161921158Y-86945500D01*
X162078844Y-86945500D01*
X162078845Y-86945499D01*
X162233497Y-86914737D01*
X162379179Y-86854394D01*
X162510289Y-86766789D01*
X162621789Y-86655289D01*
X162709394Y-86524179D01*
X162769737Y-86378497D01*
X162800500Y-86223842D01*
X162800500Y-86066158D01*
X162800500Y-86066155D01*
X162800499Y-86066153D01*
X162778788Y-85957007D01*
X162769737Y-85911503D01*
X162757444Y-85881824D01*
X162709396Y-85765825D01*
X162709395Y-85765823D01*
X162709394Y-85765821D01*
X162695737Y-85745383D01*
X162674859Y-85678710D01*
X162693342Y-85611329D01*
X162711155Y-85588815D01*
X162752206Y-85547765D01*
X162797585Y-85444991D01*
X162800500Y-85419865D01*
X162800499Y-84330136D01*
X162798106Y-84309500D01*
X162797586Y-84305012D01*
X162797585Y-84305010D01*
X162797585Y-84305009D01*
X162752206Y-84202235D01*
X162672765Y-84122794D01*
X162569992Y-84077415D01*
X162544865Y-84074500D01*
X161455143Y-84074500D01*
X161455117Y-84074502D01*
X161430014Y-84077413D01*
X161421013Y-84079863D01*
X161420200Y-84076875D01*
X161366581Y-84083877D01*
X161316925Y-84064480D01*
X161203684Y-83988814D01*
X161203671Y-83988807D01*
X161021691Y-83913429D01*
X161021683Y-83913427D01*
X160980000Y-83905135D01*
X160980000Y-84665382D01*
X160929554Y-84614936D01*
X160855445Y-84572149D01*
X160772787Y-84550000D01*
X160687213Y-84550000D01*
X160604555Y-84572149D01*
X160530446Y-84614936D01*
X160469936Y-84675446D01*
X160427149Y-84749555D01*
X160405000Y-84832213D01*
X160405000Y-84917787D01*
X160427149Y-85000445D01*
X160469936Y-85074554D01*
X160520382Y-85125000D01*
X159669618Y-85125000D01*
X159720064Y-85074554D01*
X159762851Y-85000445D01*
X159785000Y-84917787D01*
X159785000Y-84832213D01*
X159762851Y-84749555D01*
X159720064Y-84675446D01*
X159659554Y-84614936D01*
X159585445Y-84572149D01*
X159502787Y-84550000D01*
X159417213Y-84550000D01*
X159334555Y-84572149D01*
X159260446Y-84614936D01*
X159210000Y-84665382D01*
X159210000Y-83905136D01*
X159209999Y-83905135D01*
X159710000Y-83905135D01*
X159710000Y-84625000D01*
X160480000Y-84625000D01*
X160480000Y-83905136D01*
X160479999Y-83905135D01*
X160438316Y-83913427D01*
X160438308Y-83913429D01*
X160256328Y-83988807D01*
X160256315Y-83988814D01*
X160163891Y-84050571D01*
X160097214Y-84071449D01*
X160029833Y-84052965D01*
X160026109Y-84050571D01*
X159933684Y-83988814D01*
X159933671Y-83988807D01*
X159751691Y-83913429D01*
X159751683Y-83913427D01*
X159710000Y-83905135D01*
X159209999Y-83905135D01*
X159168316Y-83913427D01*
X159168308Y-83913429D01*
X158986328Y-83988807D01*
X158986315Y-83988814D01*
X158822537Y-84098248D01*
X158822533Y-84098251D01*
X158752636Y-84168149D01*
X158691313Y-84201634D01*
X158621621Y-84196650D01*
X158596064Y-84183570D01*
X158569184Y-84165609D01*
X158569181Y-84165607D01*
X158569179Y-84165606D01*
X158569176Y-84165604D01*
X158569171Y-84165602D01*
X158423501Y-84105264D01*
X158423489Y-84105261D01*
X158268845Y-84074500D01*
X158268842Y-84074500D01*
X158111158Y-84074500D01*
X158111155Y-84074500D01*
X157956510Y-84105261D01*
X157956498Y-84105264D01*
X157810827Y-84165602D01*
X157810814Y-84165609D01*
X157679711Y-84253210D01*
X157679707Y-84253213D01*
X157642681Y-84290240D01*
X157581358Y-84323725D01*
X157511666Y-84318741D01*
X157467319Y-84290240D01*
X157430292Y-84253213D01*
X157430288Y-84253210D01*
X157299185Y-84165609D01*
X157299172Y-84165602D01*
X157153501Y-84105264D01*
X157153489Y-84105261D01*
X156998845Y-84074500D01*
X156998842Y-84074500D01*
X156841158Y-84074500D01*
X156841155Y-84074500D01*
X156686510Y-84105261D01*
X156686498Y-84105264D01*
X156540827Y-84165602D01*
X156540814Y-84165609D01*
X156409711Y-84253210D01*
X156409707Y-84253213D01*
X156298213Y-84364707D01*
X156298210Y-84364711D01*
X156210603Y-84495824D01*
X156210429Y-84496150D01*
X156210293Y-84496288D01*
X156207221Y-84500886D01*
X156206348Y-84500303D01*
X156161464Y-84545991D01*
X156093325Y-84561447D01*
X156027647Y-84537610D01*
X156013394Y-84525370D01*
X155907517Y-84419493D01*
X155907511Y-84419488D01*
X155781988Y-84347017D01*
X155781989Y-84347017D01*
X155770506Y-84343940D01*
X155641975Y-84309500D01*
X155497025Y-84309500D01*
X155368493Y-84343940D01*
X155357011Y-84347017D01*
X155231488Y-84419488D01*
X155231482Y-84419493D01*
X155128993Y-84521982D01*
X155128988Y-84521988D01*
X155056517Y-84647511D01*
X155056516Y-84647515D01*
X155019000Y-84787525D01*
X152922067Y-84787525D01*
X152909727Y-84770540D01*
X152909723Y-84770535D01*
X152759464Y-84620276D01*
X152759459Y-84620272D01*
X152587557Y-84495379D01*
X152398215Y-84398903D01*
X152196124Y-84333241D01*
X152130000Y-84322768D01*
X152130000Y-85216988D01*
X152072993Y-85184075D01*
X151945826Y-85150000D01*
X151814174Y-85150000D01*
X151687007Y-85184075D01*
X151630000Y-85216988D01*
X151630000Y-84322768D01*
X151629999Y-84322768D01*
X151563875Y-84333241D01*
X151361784Y-84398903D01*
X151172442Y-84495379D01*
X151000540Y-84620272D01*
X151000535Y-84620276D01*
X150850276Y-84770535D01*
X150850272Y-84770540D01*
X150725379Y-84942442D01*
X150628905Y-85131781D01*
X150619506Y-85160708D01*
X150580068Y-85218383D01*
X150515709Y-85245581D01*
X150446862Y-85233666D01*
X150395387Y-85186421D01*
X150391090Y-85178684D01*
X150338032Y-85074554D01*
X150323996Y-85047006D01*
X150256309Y-84953842D01*
X150217558Y-84900505D01*
X150217554Y-84900500D01*
X150089499Y-84772445D01*
X150089494Y-84772441D01*
X149942997Y-84666006D01*
X149942996Y-84666005D01*
X149942994Y-84666004D01*
X149866906Y-84627235D01*
X149781639Y-84583788D01*
X149781636Y-84583787D01*
X149609410Y-84527829D01*
X149430551Y-84499500D01*
X149430546Y-84499500D01*
X149249454Y-84499500D01*
X149249449Y-84499500D01*
X149070589Y-84527829D01*
X148898363Y-84583787D01*
X148898360Y-84583788D01*
X148737002Y-84666006D01*
X148590505Y-84772441D01*
X148590500Y-84772445D01*
X148462445Y-84900500D01*
X148462441Y-84900505D01*
X148356006Y-85047002D01*
X148273788Y-85208360D01*
X148273787Y-85208363D01*
X148217829Y-85380589D01*
X148192473Y-85540678D01*
X148162544Y-85603813D01*
X148103232Y-85640744D01*
X148033369Y-85639746D01*
X147975137Y-85601136D01*
X147947527Y-85540678D01*
X147925245Y-85400000D01*
X147922171Y-85380591D01*
X147879708Y-85249901D01*
X147866212Y-85208363D01*
X147866211Y-85208360D01*
X147798032Y-85074554D01*
X147783996Y-85047006D01*
X147716309Y-84953842D01*
X147677558Y-84900505D01*
X147677554Y-84900500D01*
X147549499Y-84772445D01*
X147549494Y-84772441D01*
X147402997Y-84666006D01*
X147402996Y-84666005D01*
X147402994Y-84666004D01*
X147326906Y-84627235D01*
X147241639Y-84583788D01*
X147241636Y-84583787D01*
X147069410Y-84527829D01*
X146890551Y-84499500D01*
X146890546Y-84499500D01*
X146709454Y-84499500D01*
X146709449Y-84499500D01*
X146530589Y-84527829D01*
X146358363Y-84583787D01*
X146358360Y-84583788D01*
X146197002Y-84666006D01*
X146050505Y-84772441D01*
X146050500Y-84772445D01*
X145922445Y-84900500D01*
X145922441Y-84900505D01*
X145816006Y-85047002D01*
X145733788Y-85208360D01*
X145733787Y-85208363D01*
X145677829Y-85380589D01*
X145656972Y-85512271D01*
X145627042Y-85575405D01*
X145567731Y-85612336D01*
X145497868Y-85611338D01*
X145439636Y-85572728D01*
X145411522Y-85508764D01*
X145410499Y-85492872D01*
X145410499Y-84755143D01*
X145410499Y-84755136D01*
X145410497Y-84755117D01*
X145407586Y-84730012D01*
X145407585Y-84730010D01*
X145407585Y-84730009D01*
X145362206Y-84627235D01*
X145282765Y-84547794D01*
X145278682Y-84545991D01*
X145179992Y-84502415D01*
X145154865Y-84499500D01*
X143365143Y-84499500D01*
X143365117Y-84499502D01*
X143340012Y-84502413D01*
X143340008Y-84502415D01*
X143237235Y-84547793D01*
X143157794Y-84627234D01*
X143112415Y-84730006D01*
X143112415Y-84730008D01*
X143109500Y-84755131D01*
X141260500Y-84755131D01*
X141260500Y-83384500D01*
X141280185Y-83317461D01*
X141332989Y-83271706D01*
X141384500Y-83260500D01*
X152109826Y-83260500D01*
X152109828Y-83260500D01*
X152201897Y-83222364D01*
X152272364Y-83151897D01*
X152310500Y-83059828D01*
X152310500Y-79654500D01*
X152330185Y-79587461D01*
X152382989Y-79541706D01*
X152434500Y-79530500D01*
X156205500Y-79530500D01*
X156272539Y-79550185D01*
G37*
%TD.AperFunction*%
%TD*%
M02*
