%TF.GenerationSoftware,KiCad,Pcbnew,10.0.5-1.fc44*%
%TF.CreationDate,2026-09-18T15:24:59+02:00*%
%TF.ProjectId,densor_nfc_v2,64656e73-6f72-45f6-9e66-635f76322e6b,rev?*%
%TF.SameCoordinates,Original*%
%TF.FileFunction,Paste,Top*%
%TF.FilePolarity,Positive*%
%FSLAX46Y46*%
G04 Gerber Fmt 4.6, Leading zero omitted, Abs format (unit mm)*
G04 Created by KiCad (PCBNEW 10.0.5-1.fc44) date 2026-09-18 15:24:59*
%MOMM*%
%LPD*%
G01*
G04 APERTURE LIST*
G04 Aperture macros list*
%AMRoundRect*
0 Rectangle with rounded corners*
0 $1 Rounding radius*
0 $2 $3 $4 $5 $6 $7 $8 $9 X,Y pos of 4 corners*
0 Add a 4 corners polygon primitive as box body*
4,1,4,$2,$3,$4,$5,$6,$7,$8,$9,$2,$3,0*
0 Add four circle primitives for the rounded corners*
1,1,$1+$1,$2,$3*
1,1,$1+$1,$4,$5*
1,1,$1+$1,$6,$7*
1,1,$1+$1,$8,$9*
0 Add four rect primitives between the rounded corners*
20,1,$1+$1,$2,$3,$4,$5,0*
20,1,$1+$1,$4,$5,$6,$7,0*
20,1,$1+$1,$6,$7,$8,$9,0*
20,1,$1+$1,$8,$9,$2,$3,0*%
%AMFreePoly0*
4,1,6,0.325000,0.000000,0.325000,-0.150000,-0.175000,-0.150000,-0.175000,0.150000,0.175000,0.150000,0.325000,0.000000,0.325000,0.000000,$1*%
%AMFreePoly1*
4,1,6,0.325000,0.000000,0.175000,-0.150000,-0.175000,-0.150000,-0.175000,0.150000,0.325000,0.150000,0.325000,0.000000,0.325000,0.000000,$1*%
%AMFreePoly2*
4,1,6,0.150000,-0.175000,-0.150000,-0.175000,-0.150000,0.175000,0.000000,0.325000,0.150000,0.325000,0.150000,-0.175000,0.150000,-0.175000,$1*%
%AMFreePoly3*
4,1,6,0.150000,0.175000,0.150000,-0.175000,-0.150000,-0.175000,-0.150000,0.325000,0.000000,0.325000,0.150000,0.175000,0.150000,0.175000,$1*%
%AMFreePoly4*
4,1,6,0.175000,-0.150000,-0.175000,-0.150000,-0.325000,0.000000,-0.325000,0.150000,0.175000,0.150000,0.175000,-0.150000,0.175000,-0.150000,$1*%
%AMFreePoly5*
4,1,7,0.175000,-0.150000,-0.175000,-0.150000,-0.325000,-0.150000,-0.325000,0.000000,-0.175000,0.150000,0.175000,0.150000,0.175000,-0.150000,0.175000,-0.150000,$1*%
%AMFreePoly6*
4,1,6,0.150000,-0.175000,0.000000,-0.325000,-0.150000,-0.325000,-0.150000,0.175000,0.150000,0.175000,0.150000,-0.175000,0.150000,-0.175000,$1*%
%AMFreePoly7*
4,1,6,0.150000,-0.325000,0.000000,-0.325000,-0.150000,-0.175000,-0.150000,0.175000,0.150000,0.175000,0.150000,-0.325000,0.150000,-0.325000,$1*%
G04 Aperture macros list end*
%ADD10C,0.000000*%
%ADD11C,0.010000*%
%ADD12FreePoly0,0.000000*%
%ADD13R,0.700000X0.300000*%
%ADD14FreePoly1,0.000000*%
%ADD15FreePoly2,0.000000*%
%ADD16R,0.300000X0.700000*%
%ADD17FreePoly3,0.000000*%
%ADD18FreePoly4,0.000000*%
%ADD19FreePoly5,0.000000*%
%ADD20FreePoly6,0.000000*%
%ADD21FreePoly7,0.000000*%
%ADD22RoundRect,0.225000X-0.225000X-0.250000X0.225000X-0.250000X0.225000X0.250000X-0.225000X0.250000X0*%
%ADD23C,0.203200*%
%ADD24R,0.275000X0.250000*%
%ADD25R,0.250000X0.275000*%
%ADD26RoundRect,0.200000X0.275000X-0.200000X0.275000X0.200000X-0.275000X0.200000X-0.275000X-0.200000X0*%
%ADD27RoundRect,0.225000X-0.250000X0.225000X-0.250000X-0.225000X0.250000X-0.225000X0.250000X0.225000X0*%
%ADD28R,1.400000X1.400000*%
%ADD29RoundRect,0.225000X0.225000X0.250000X-0.225000X0.250000X-0.225000X-0.250000X0.225000X-0.250000X0*%
%ADD30RoundRect,0.200000X-0.200000X-0.275000X0.200000X-0.275000X0.200000X0.275000X-0.200000X0.275000X0*%
%ADD31RoundRect,0.112500X0.112500X-0.187500X0.112500X0.187500X-0.112500X0.187500X-0.112500X-0.187500X0*%
%ADD32R,1.000000X1.450000*%
%ADD33R,0.200000X0.750000*%
%ADD34RoundRect,0.172500X-0.172500X0.172500X-0.172500X-0.172500X0.172500X-0.172500X0.172500X0.172500X0*%
%ADD35RoundRect,0.062500X-0.062500X0.350000X-0.062500X-0.350000X0.062500X-0.350000X0.062500X0.350000X0*%
%ADD36RoundRect,0.062500X-0.350000X0.062500X-0.350000X-0.062500X0.350000X-0.062500X0.350000X0.062500X0*%
%ADD37R,0.350000X2.000000*%
%ADD38R,1.000000X0.500000*%
%ADD39RoundRect,0.125000X-0.125000X0.125000X-0.125000X-0.125000X0.125000X-0.125000X0.125000X0.125000X0*%
%ADD40R,0.420000X0.350000*%
G04 APERTURE END LIST*
D10*
%TO.C,U6*%
G36*
X137275000Y-91425000D02*
G01*
X136674999Y-91425000D01*
X136674999Y-91275000D01*
X137275000Y-91275000D01*
X137275000Y-91425000D01*
G37*
G36*
X137275000Y-91824999D02*
G01*
X136674999Y-91824999D01*
X136674999Y-91674999D01*
X137275000Y-91674999D01*
X137275000Y-91824999D01*
G37*
G36*
X137275000Y-92225001D02*
G01*
X136674999Y-92225001D01*
X136674999Y-92075001D01*
X137275000Y-92075001D01*
X137275000Y-92225001D01*
G37*
G36*
X137275000Y-92625000D02*
G01*
X136674999Y-92625000D01*
X136674999Y-92475000D01*
X137275000Y-92475000D01*
X137275000Y-92625000D01*
G37*
G36*
X137625000Y-91475000D02*
G01*
X137475000Y-91475000D01*
X137475000Y-90875001D01*
X137625000Y-90875001D01*
X137625000Y-91475000D01*
G37*
G36*
X137625000Y-93024999D02*
G01*
X137475000Y-93024999D01*
X137475000Y-92425000D01*
X137625000Y-92425000D01*
X137625000Y-93024999D01*
G37*
G36*
X138024999Y-91475000D02*
G01*
X137874999Y-91475000D01*
X137874999Y-90875001D01*
X138024999Y-90875001D01*
X138024999Y-91475000D01*
G37*
G36*
X138024999Y-93024999D02*
G01*
X137874999Y-93024999D01*
X137874999Y-92425000D01*
X138024999Y-92425000D01*
X138024999Y-93024999D01*
G37*
G36*
X138425001Y-91475000D02*
G01*
X138275001Y-91475000D01*
X138275001Y-90875001D01*
X138425001Y-90875001D01*
X138425001Y-91475000D01*
G37*
G36*
X138425001Y-93024999D02*
G01*
X138275001Y-93024999D01*
X138275001Y-92425000D01*
X138425001Y-92425000D01*
X138425001Y-93024999D01*
G37*
G36*
X138825000Y-91475000D02*
G01*
X138675000Y-91475000D01*
X138675000Y-90875001D01*
X138825000Y-90875001D01*
X138825000Y-91475000D01*
G37*
G36*
X138825000Y-93024999D02*
G01*
X138675000Y-93024999D01*
X138675000Y-92425000D01*
X138825000Y-92425000D01*
X138825000Y-93024999D01*
G37*
G36*
X139625001Y-91425000D02*
G01*
X139025000Y-91425000D01*
X139025000Y-91275000D01*
X139625001Y-91275000D01*
X139625001Y-91425000D01*
G37*
G36*
X139625001Y-91824999D02*
G01*
X139025000Y-91824999D01*
X139025000Y-91674999D01*
X139625001Y-91674999D01*
X139625001Y-91824999D01*
G37*
G36*
X139625001Y-92225001D02*
G01*
X139025000Y-92225001D01*
X139025000Y-92075001D01*
X139625001Y-92075001D01*
X139625001Y-92225001D01*
G37*
G36*
X139625001Y-92625000D02*
G01*
X139025000Y-92625000D01*
X139025000Y-92475000D01*
X139625001Y-92475000D01*
X139625001Y-92625000D01*
G37*
D11*
%TO.C,U1*%
X137787500Y-94640000D02*
X138537500Y-94640000D01*
X138537500Y-95590000D01*
X137787500Y-95590000D01*
X137787500Y-94640000D01*
G36*
X138537500Y-95590000D02*
G01*
X137787500Y-95590000D01*
X137787500Y-94640000D01*
X138537500Y-94640000D01*
X138537500Y-95590000D01*
G37*
X137787500Y-95810000D02*
X138537500Y-95810000D01*
X138537500Y-96760000D01*
X137787500Y-96760000D01*
X137787500Y-95810000D01*
G36*
X138537500Y-96760000D02*
G01*
X137787500Y-96760000D01*
X137787500Y-95810000D01*
X138537500Y-95810000D01*
X138537500Y-96760000D01*
G37*
%TD*%
D12*
%TO.C,U4*%
X158725000Y-91700000D03*
D13*
X158900000Y-92200000D03*
X158900000Y-92700000D03*
X158900000Y-93200000D03*
D14*
X158725000Y-93700000D03*
D15*
X159200000Y-94175000D03*
D16*
X159700000Y-94000000D03*
X160200000Y-94000000D03*
X160700000Y-94000000D03*
D17*
X161200000Y-94175000D03*
D18*
X161675000Y-93700000D03*
D13*
X161500000Y-93200000D03*
X161500000Y-92700000D03*
X161500000Y-92200000D03*
D19*
X161675000Y-91700000D03*
D20*
X161200000Y-91225000D03*
D16*
X160700000Y-91400000D03*
X160200000Y-91400000D03*
X159700000Y-91400000D03*
D21*
X159200000Y-91225000D03*
%TD*%
D22*
%TO.C,C4*%
X156275000Y-96900000D03*
X157825000Y-96900000D03*
%TD*%
D23*
%TO.C,U7*%
X181400050Y-95600000D03*
X181400050Y-96000000D03*
X181000000Y-95600000D03*
X181000000Y-96000000D03*
X180599950Y-95600000D03*
X180599950Y-96000000D03*
%TD*%
D24*
%TO.C,U5*%
X160812500Y-97050000D03*
X160812500Y-96550000D03*
X160812500Y-96050000D03*
X160812500Y-95550000D03*
D25*
X160300000Y-95537500D03*
X159800000Y-95537500D03*
D24*
X159287500Y-95550000D03*
X159287500Y-96050000D03*
X159287500Y-96550000D03*
X159287500Y-97050000D03*
D25*
X159800000Y-97062500D03*
X160300000Y-97062500D03*
%TD*%
D26*
%TO.C,R3*%
X146550000Y-93075000D03*
X146550000Y-91425000D03*
%TD*%
D27*
%TO.C,C14*%
X179000000Y-94950000D03*
X179000000Y-96500000D03*
%TD*%
D28*
%TO.C,C1*%
X146400000Y-94750000D03*
X146400000Y-96950000D03*
%TD*%
D29*
%TO.C,C12*%
X164850000Y-94650000D03*
X163300000Y-94650000D03*
%TD*%
D30*
%TO.C,R7*%
X155175000Y-90900000D03*
X156825000Y-90900000D03*
%TD*%
D26*
%TO.C,R4*%
X148050000Y-93075000D03*
X148050000Y-91425000D03*
%TD*%
D29*
%TO.C,C7*%
X164850000Y-93150000D03*
X163300000Y-93150000D03*
%TD*%
%TO.C,C13*%
X143275000Y-93750000D03*
X141725000Y-93750000D03*
%TD*%
D31*
%TO.C,D2*%
X143850000Y-97200000D03*
X143850000Y-95100000D03*
%TD*%
D22*
%TO.C,C6*%
X141725000Y-92250000D03*
X143275000Y-92250000D03*
%TD*%
D32*
%TO.C,D3*%
X152050000Y-91200000D03*
X153650000Y-91200000D03*
%TD*%
D28*
%TO.C,C2*%
X148950000Y-94750000D03*
X148950000Y-96950000D03*
%TD*%
D26*
%TO.C,R2*%
X145050000Y-93075000D03*
X145050000Y-91425000D03*
%TD*%
D33*
%TO.C,U6*%
X138749999Y-91225800D03*
%TD*%
D34*
%TO.C,U2*%
X153725000Y-95087500D03*
X152875000Y-95087500D03*
X153725000Y-95937500D03*
X152875000Y-95937500D03*
D35*
X154050000Y-94050000D03*
X153550000Y-94050000D03*
X153050000Y-94050000D03*
X152550000Y-94050000D03*
D36*
X151837500Y-94762500D03*
X151837500Y-95262500D03*
X151837500Y-95762500D03*
X151837500Y-96262500D03*
D35*
X152550000Y-96975000D03*
X153050000Y-96975000D03*
X153550000Y-96975000D03*
X154050000Y-96975000D03*
D36*
X154762500Y-96262500D03*
X154762500Y-95762500D03*
X154762500Y-95262500D03*
X154762500Y-94762500D03*
%TD*%
D37*
%TO.C,J2*%
X152570000Y-80320000D03*
X153070000Y-80320000D03*
X153570000Y-80320000D03*
X154070000Y-80320000D03*
X154570000Y-80320000D03*
X155070000Y-80320000D03*
X155570000Y-80320000D03*
X156070000Y-80320000D03*
%TD*%
D38*
%TO.C,Y1*%
X156300000Y-94400000D03*
X156300000Y-95500000D03*
%TD*%
D39*
%TO.C,D1*%
X141900000Y-95050000D03*
X141900000Y-97250000D03*
%TD*%
D29*
%TO.C,C5*%
X164850000Y-91650000D03*
X163300000Y-91650000D03*
%TD*%
D40*
%TO.C,U1*%
X136902500Y-94450000D03*
X136902500Y-94950000D03*
X136902500Y-95450000D03*
X136902500Y-95950000D03*
X136902500Y-96450000D03*
X136902500Y-96950000D03*
X139422500Y-96950000D03*
X139422500Y-96450000D03*
X139422500Y-95950000D03*
X139422500Y-95450000D03*
X139422500Y-94950000D03*
X139422500Y-94450000D03*
%TD*%
M02*
