%TF.GenerationSoftware,KiCad,Pcbnew,10.0.5-1.fc44*%
%TF.CreationDate,2026-09-18T15:24:59+02:00*%
%TF.ProjectId,densor_nfc_v2,64656e73-6f72-45f6-9e66-635f76322e6b,rev?*%
%TF.SameCoordinates,Original*%
%TF.FileFunction,Soldermask,Top*%
%TF.FilePolarity,Negative*%
%FSLAX46Y46*%
G04 Gerber Fmt 4.6, Leading zero omitted, Abs format (unit mm)*
G04 Created by KiCad (PCBNEW 10.0.5-1.fc44) date 2026-09-18 15:24:59*
%MOMM*%
%LPD*%
G01*
G04 APERTURE LIST*
G04 Aperture macros list*
%AMRoundRect*
0 Rectangle with rounded corners*
0 $1 Rounding radius*
0 $2 $3 $4 $5 $6 $7 $8 $9 X,Y pos of 4 corners*
0 Add a 4 corners polygon primitive as box body*
4,1,4,$2,$3,$4,$5,$6,$7,$8,$9,$2,$3,0*
0 Add four circle primitives for the rounded corners*
1,1,$1+$1,$2,$3*
1,1,$1+$1,$4,$5*
1,1,$1+$1,$6,$7*
1,1,$1+$1,$8,$9*
0 Add four rect primitives between the rounded corners*
20,1,$1+$1,$2,$3,$4,$5,0*
20,1,$1+$1,$4,$5,$6,$7,0*
20,1,$1+$1,$6,$7,$8,$9,0*
20,1,$1+$1,$8,$9,$2,$3,0*%
%AMFreePoly0*
4,1,6,0.325000,0.000000,0.325000,-0.150000,-0.175000,-0.150000,-0.175000,0.150000,0.175000,0.150000,0.325000,0.000000,0.325000,0.000000,$1*%
%AMFreePoly1*
4,1,6,0.325000,0.000000,0.175000,-0.150000,-0.175000,-0.150000,-0.175000,0.150000,0.325000,0.150000,0.325000,0.000000,0.325000,0.000000,$1*%
%AMFreePoly2*
4,1,6,0.150000,-0.175000,-0.150000,-0.175000,-0.150000,0.175000,0.000000,0.325000,0.150000,0.325000,0.150000,-0.175000,0.150000,-0.175000,$1*%
%AMFreePoly3*
4,1,6,0.150000,0.175000,0.150000,-0.175000,-0.150000,-0.175000,-0.150000,0.325000,0.000000,0.325000,0.150000,0.175000,0.150000,0.175000,$1*%
%AMFreePoly4*
4,1,6,0.175000,-0.150000,-0.175000,-0.150000,-0.325000,0.000000,-0.325000,0.150000,0.175000,0.150000,0.175000,-0.150000,0.175000,-0.150000,$1*%
%AMFreePoly5*
4,1,7,0.175000,-0.150000,-0.175000,-0.150000,-0.325000,-0.150000,-0.325000,0.000000,-0.175000,0.150000,0.175000,0.150000,0.175000,-0.150000,0.175000,-0.150000,$1*%
%AMFreePoly6*
4,1,6,0.150000,-0.175000,0.000000,-0.325000,-0.150000,-0.325000,-0.150000,0.175000,0.150000,0.175000,0.150000,-0.175000,0.150000,-0.175000,$1*%
%AMFreePoly7*
4,1,6,0.150000,-0.325000,0.000000,-0.325000,-0.150000,-0.175000,-0.150000,0.175000,0.150000,0.175000,0.150000,-0.325000,0.150000,-0.325000,$1*%
G04 Aperture macros list end*
%ADD10C,0.000000*%
%ADD11C,0.010000*%
%ADD12FreePoly0,0.000000*%
%ADD13R,0.700000X0.300000*%
%ADD14FreePoly1,0.000000*%
%ADD15FreePoly2,0.000000*%
%ADD16R,0.300000X0.700000*%
%ADD17FreePoly3,0.000000*%
%ADD18FreePoly4,0.000000*%
%ADD19FreePoly5,0.000000*%
%ADD20FreePoly6,0.000000*%
%ADD21FreePoly7,0.000000*%
%ADD22RoundRect,0.225000X-0.225000X-0.250000X0.225000X-0.250000X0.225000X0.250000X-0.225000X0.250000X0*%
%ADD23C,0.303200*%
%ADD24R,1.000000X1.000000*%
%ADD25O,1.000000X1.000000*%
%ADD26R,0.275000X0.250000*%
%ADD27R,0.250000X0.275000*%
%ADD28RoundRect,0.200000X0.275000X-0.200000X0.275000X0.200000X-0.275000X0.200000X-0.275000X-0.200000X0*%
%ADD29RoundRect,0.225000X-0.250000X0.225000X-0.250000X-0.225000X0.250000X-0.225000X0.250000X0.225000X0*%
%ADD30R,1.400000X1.400000*%
%ADD31RoundRect,0.225000X0.225000X0.250000X-0.225000X0.250000X-0.225000X-0.250000X0.225000X-0.250000X0*%
%ADD32RoundRect,0.200000X-0.200000X-0.275000X0.200000X-0.275000X0.200000X0.275000X-0.200000X0.275000X0*%
%ADD33RoundRect,0.112500X0.112500X-0.187500X0.112500X0.187500X-0.112500X0.187500X-0.112500X-0.187500X0*%
%ADD34R,1.000000X1.450000*%
%ADD35R,0.200000X0.750000*%
%ADD36R,0.200000X0.650000*%
%ADD37R,0.650000X0.200000*%
%ADD38RoundRect,0.062500X-0.062500X0.350000X-0.062500X-0.350000X0.062500X-0.350000X0.062500X0.350000X0*%
%ADD39RoundRect,0.062500X-0.350000X0.062500X-0.350000X-0.062500X0.350000X-0.062500X0.350000X0.062500X0*%
%ADD40R,1.700000X1.700000*%
%ADD41R,0.350000X2.000000*%
%ADD42R,1.000000X0.500000*%
%ADD43RoundRect,0.125000X-0.125000X0.125000X-0.125000X-0.125000X0.125000X-0.125000X0.125000X0.125000X0*%
%ADD44O,1.700000X1.700000*%
%ADD45R,1.400000X2.550000*%
G04 APERTURE END LIST*
D10*
%TO.C,U6*%
G36*
X137349999Y-91500001D02*
G01*
X136600001Y-91500001D01*
X136600001Y-91199999D01*
X137349999Y-91199999D01*
X137349999Y-91500001D01*
G37*
G36*
X137349999Y-91900000D02*
G01*
X136600001Y-91900000D01*
X136600001Y-91600001D01*
X137349999Y-91600001D01*
X137349999Y-91900000D01*
G37*
G36*
X137349999Y-92299999D02*
G01*
X136600001Y-92299999D01*
X136600001Y-92000000D01*
X137349999Y-92000000D01*
X137349999Y-92299999D01*
G37*
G36*
X137349999Y-92700001D02*
G01*
X136600001Y-92700001D01*
X136600001Y-92399999D01*
X137349999Y-92399999D01*
X137349999Y-92700001D01*
G37*
G36*
X137700001Y-91550001D02*
G01*
X137399999Y-91550001D01*
X137399999Y-90800000D01*
X137700001Y-90800000D01*
X137700001Y-91550001D01*
G37*
G36*
X137700001Y-93100000D02*
G01*
X137399999Y-93100000D01*
X137399999Y-92349999D01*
X137700001Y-92349999D01*
X137700001Y-93100000D01*
G37*
G36*
X138100000Y-91550001D02*
G01*
X137800001Y-91550001D01*
X137800001Y-90800000D01*
X138100000Y-90800000D01*
X138100000Y-91550001D01*
G37*
G36*
X138100000Y-93100000D02*
G01*
X137800001Y-93100000D01*
X137800001Y-92349999D01*
X138100000Y-92349999D01*
X138100000Y-93100000D01*
G37*
G36*
X138499999Y-91550001D02*
G01*
X138200000Y-91550001D01*
X138200000Y-90800000D01*
X138499999Y-90800000D01*
X138499999Y-91550001D01*
G37*
G36*
X138499999Y-93100000D02*
G01*
X138200000Y-93100000D01*
X138200000Y-92349999D01*
X138499999Y-92349999D01*
X138499999Y-93100000D01*
G37*
G36*
X138900001Y-91550001D02*
G01*
X138599999Y-91550001D01*
X138599999Y-90800000D01*
X138900001Y-90800000D01*
X138900001Y-91550001D01*
G37*
G36*
X138900001Y-93100000D02*
G01*
X138599999Y-93100000D01*
X138599999Y-92349999D01*
X138900001Y-92349999D01*
X138900001Y-93100000D01*
G37*
G36*
X139699999Y-91500001D02*
G01*
X138950001Y-91500001D01*
X138950001Y-91199999D01*
X139699999Y-91199999D01*
X139699999Y-91500001D01*
G37*
G36*
X139699999Y-91900000D02*
G01*
X138950001Y-91900000D01*
X138950001Y-91600001D01*
X139699999Y-91600001D01*
X139699999Y-91900000D01*
G37*
G36*
X139699999Y-92299999D02*
G01*
X138950001Y-92299999D01*
X138950001Y-92000000D01*
X139699999Y-92000000D01*
X139699999Y-92299999D01*
G37*
G36*
X139699999Y-92700001D02*
G01*
X138950001Y-92700001D01*
X138950001Y-92399999D01*
X139699999Y-92399999D01*
X139699999Y-92700001D01*
G37*
D11*
%TO.C,U1*%
X136642500Y-94225000D02*
X137162500Y-94225000D01*
X137162500Y-94675000D01*
X136642500Y-94675000D01*
X136642500Y-94225000D01*
G36*
X137162500Y-94675000D02*
G01*
X136642500Y-94675000D01*
X136642500Y-94225000D01*
X137162500Y-94225000D01*
X137162500Y-94675000D01*
G37*
X136642500Y-94725000D02*
X137162500Y-94725000D01*
X137162500Y-95175000D01*
X136642500Y-95175000D01*
X136642500Y-94725000D01*
G36*
X137162500Y-95175000D02*
G01*
X136642500Y-95175000D01*
X136642500Y-94725000D01*
X137162500Y-94725000D01*
X137162500Y-95175000D01*
G37*
X136642500Y-95225000D02*
X137162500Y-95225000D01*
X137162500Y-95675000D01*
X136642500Y-95675000D01*
X136642500Y-95225000D01*
G36*
X137162500Y-95675000D02*
G01*
X136642500Y-95675000D01*
X136642500Y-95225000D01*
X137162500Y-95225000D01*
X137162500Y-95675000D01*
G37*
X136642500Y-95725000D02*
X137162500Y-95725000D01*
X137162500Y-96175000D01*
X136642500Y-96175000D01*
X136642500Y-95725000D01*
G36*
X137162500Y-96175000D02*
G01*
X136642500Y-96175000D01*
X136642500Y-95725000D01*
X137162500Y-95725000D01*
X137162500Y-96175000D01*
G37*
X136642500Y-96225000D02*
X137162500Y-96225000D01*
X137162500Y-96675000D01*
X136642500Y-96675000D01*
X136642500Y-96225000D01*
G36*
X137162500Y-96675000D02*
G01*
X136642500Y-96675000D01*
X136642500Y-96225000D01*
X137162500Y-96225000D01*
X137162500Y-96675000D01*
G37*
X136642500Y-96725000D02*
X137162500Y-96725000D01*
X137162500Y-97175000D01*
X136642500Y-97175000D01*
X136642500Y-96725000D01*
G36*
X137162500Y-97175000D02*
G01*
X136642500Y-97175000D01*
X136642500Y-96725000D01*
X137162500Y-96725000D01*
X137162500Y-97175000D01*
G37*
X139162500Y-94225000D02*
X139682500Y-94225000D01*
X139682500Y-94675000D01*
X139162500Y-94675000D01*
X139162500Y-94225000D01*
G36*
X139682500Y-94675000D02*
G01*
X139162500Y-94675000D01*
X139162500Y-94225000D01*
X139682500Y-94225000D01*
X139682500Y-94675000D01*
G37*
X139162500Y-94725000D02*
X139682500Y-94725000D01*
X139682500Y-95175000D01*
X139162500Y-95175000D01*
X139162500Y-94725000D01*
G36*
X139682500Y-95175000D02*
G01*
X139162500Y-95175000D01*
X139162500Y-94725000D01*
X139682500Y-94725000D01*
X139682500Y-95175000D01*
G37*
X139162500Y-95225000D02*
X139682500Y-95225000D01*
X139682500Y-95675000D01*
X139162500Y-95675000D01*
X139162500Y-95225000D01*
G36*
X139682500Y-95675000D02*
G01*
X139162500Y-95675000D01*
X139162500Y-95225000D01*
X139682500Y-95225000D01*
X139682500Y-95675000D01*
G37*
X139162500Y-95725000D02*
X139682500Y-95725000D01*
X139682500Y-96175000D01*
X139162500Y-96175000D01*
X139162500Y-95725000D01*
G36*
X139682500Y-96175000D02*
G01*
X139162500Y-96175000D01*
X139162500Y-95725000D01*
X139682500Y-95725000D01*
X139682500Y-96175000D01*
G37*
X139162500Y-96225000D02*
X139682500Y-96225000D01*
X139682500Y-96675000D01*
X139162500Y-96675000D01*
X139162500Y-96225000D01*
G36*
X139682500Y-96675000D02*
G01*
X139162500Y-96675000D01*
X139162500Y-96225000D01*
X139682500Y-96225000D01*
X139682500Y-96675000D01*
G37*
X139162500Y-96725000D02*
X139682500Y-96725000D01*
X139682500Y-97175000D01*
X139162500Y-97175000D01*
X139162500Y-96725000D01*
G36*
X139682500Y-97175000D02*
G01*
X139162500Y-97175000D01*
X139162500Y-96725000D01*
X139682500Y-96725000D01*
X139682500Y-97175000D01*
G37*
%TD*%
D12*
%TO.C,U4*%
X158725000Y-91700000D03*
D13*
X158900000Y-92200000D03*
X158900000Y-92700000D03*
X158900000Y-93200000D03*
D14*
X158725000Y-93700000D03*
D15*
X159200000Y-94175000D03*
D16*
X159700000Y-94000000D03*
X160200000Y-94000000D03*
X160700000Y-94000000D03*
D17*
X161200000Y-94175000D03*
D18*
X161675000Y-93700000D03*
D13*
X161500000Y-93200000D03*
X161500000Y-92700000D03*
X161500000Y-92200000D03*
D19*
X161675000Y-91700000D03*
D20*
X161200000Y-91225000D03*
D16*
X160700000Y-91400000D03*
X160200000Y-91400000D03*
X159700000Y-91400000D03*
D21*
X159200000Y-91225000D03*
%TD*%
D22*
%TO.C,C4*%
X156275000Y-96900000D03*
X157825000Y-96900000D03*
%TD*%
D23*
%TO.C,U7*%
X181400050Y-95600000D03*
X181400050Y-96000000D03*
X181000000Y-95600000D03*
X181000000Y-96000000D03*
X180599950Y-95600000D03*
X180599950Y-96000000D03*
%TD*%
D24*
%TO.C,J1*%
X162000000Y-84875000D03*
D25*
X162000000Y-86145000D03*
X160730000Y-84875000D03*
X160730000Y-86145000D03*
X159460000Y-84875000D03*
X159460000Y-86145000D03*
X158190000Y-84875000D03*
X158190000Y-86145000D03*
X156920000Y-84875000D03*
X156920000Y-86145000D03*
%TD*%
D26*
%TO.C,U5*%
X160812500Y-97050000D03*
X160812500Y-96550000D03*
X160812500Y-96050000D03*
X160812500Y-95550000D03*
D27*
X160300000Y-95537500D03*
X159800000Y-95537500D03*
D26*
X159287500Y-95550000D03*
X159287500Y-96050000D03*
X159287500Y-96550000D03*
X159287500Y-97050000D03*
D27*
X159800000Y-97062500D03*
X160300000Y-97062500D03*
%TD*%
D28*
%TO.C,R3*%
X146550000Y-93075000D03*
X146550000Y-91425000D03*
%TD*%
D29*
%TO.C,C14*%
X179000000Y-94950000D03*
X179000000Y-96500000D03*
%TD*%
D30*
%TO.C,C1*%
X146400000Y-94750000D03*
X146400000Y-96950000D03*
%TD*%
D31*
%TO.C,C12*%
X164850000Y-94650000D03*
X163300000Y-94650000D03*
%TD*%
D32*
%TO.C,R7*%
X155175000Y-90900000D03*
X156825000Y-90900000D03*
%TD*%
D28*
%TO.C,R4*%
X148050000Y-93075000D03*
X148050000Y-91425000D03*
%TD*%
D31*
%TO.C,C7*%
X164850000Y-93150000D03*
X163300000Y-93150000D03*
%TD*%
%TO.C,C13*%
X143275000Y-93750000D03*
X141725000Y-93750000D03*
%TD*%
D33*
%TO.C,D2*%
X143850000Y-97200000D03*
X143850000Y-95100000D03*
%TD*%
D22*
%TO.C,C6*%
X141725000Y-92250000D03*
X143275000Y-92250000D03*
%TD*%
D34*
%TO.C,D3*%
X152050000Y-91200000D03*
X153650000Y-91200000D03*
%TD*%
D30*
%TO.C,C2*%
X148950000Y-94750000D03*
X148950000Y-96950000D03*
%TD*%
D28*
%TO.C,R2*%
X145050000Y-93075000D03*
X145050000Y-91425000D03*
%TD*%
D35*
%TO.C,U6*%
X138749999Y-91225800D03*
D36*
X138350000Y-91175000D03*
X137950000Y-91175000D03*
X137550001Y-91175000D03*
D37*
X136975001Y-91350001D03*
X136975001Y-91750000D03*
X136975001Y-92150000D03*
X136975001Y-92549999D03*
D36*
X137550001Y-92725000D03*
X137950000Y-92725000D03*
X138350000Y-92725000D03*
X138749999Y-92725000D03*
D37*
X139324999Y-92549999D03*
X139324999Y-92150000D03*
X139324999Y-91750000D03*
X139324999Y-91350001D03*
%TD*%
D38*
%TO.C,U2*%
X154050000Y-94050000D03*
X153550000Y-94050000D03*
X153050000Y-94050000D03*
X152550000Y-94050000D03*
D39*
X151837500Y-94762500D03*
X151837500Y-95262500D03*
X151837500Y-95762500D03*
X151837500Y-96262500D03*
D38*
X152550000Y-96975000D03*
X153050000Y-96975000D03*
X153550000Y-96975000D03*
X154050000Y-96975000D03*
D39*
X154762500Y-96262500D03*
X154762500Y-95762500D03*
X154762500Y-95262500D03*
X154762500Y-94762500D03*
D40*
X153300000Y-95512500D03*
%TD*%
D41*
%TO.C,J2*%
X152570000Y-80320000D03*
X153070000Y-80320000D03*
X153570000Y-80320000D03*
X154070000Y-80320000D03*
X154570000Y-80320000D03*
X155070000Y-80320000D03*
X155570000Y-80320000D03*
X156070000Y-80320000D03*
%TD*%
D42*
%TO.C,Y1*%
X156300000Y-94400000D03*
X156300000Y-95500000D03*
%TD*%
D43*
%TO.C,D1*%
X141900000Y-95050000D03*
X141900000Y-97250000D03*
%TD*%
D40*
%TO.C,J3*%
X144260000Y-85650000D03*
D44*
X146800000Y-85650000D03*
X149340000Y-85650000D03*
X151880000Y-85650000D03*
%TD*%
D31*
%TO.C,C5*%
X164850000Y-91650000D03*
X163300000Y-91650000D03*
%TD*%
D45*
%TO.C,U1*%
X138162500Y-95700000D03*
%TD*%
M02*
